<svg width="103" height="104" viewBox="0 0 103 104" fill="none" xmlns="http://www.w3.org/2000/svg">
<path d="M51.87 0C23.71 0 0 22.83 0 51V103.81L51.86 103.76C80.02 103.76 102.86 80.05 102.86 51.89C102.86 23.73 80 0 51.87 0Z" fill="black"/>
<path d="M52.37 19.74C41.232 19.7466 30.9189 25.6126 25.2204 35.1825C19.522 44.7524 19.2787 56.6145 24.58 66.41L18.86 84.81L39.4 80.17C51.162 85.4693 64.9641 83.0892 74.2719 74.1565C83.5797 65.2239 86.5253 51.5314 81.7141 39.5614C76.903 27.5915 65.3006 19.7463 52.4 19.74H52.37Z" fill="#FFF9AE"/>
<path d="M77.45 32.12C86.215 43.612 86.066 59.587 77.087 70.914C68.11 82.24 52.59 86.03 39.4 80.12L18.86 84.82L39.77 82.35C53.632 90.47 71.38 86.897 81.02 74.046C90.66 61.195 89.125 43.156 77.45 32.12Z" fill="#00AEEF"/>
<path d="M75.32 64.909C67.571 77.11 52.533 82.5 38.8 78L18.86 84.82L39.4 80.17C54.029 86.778 71.287 81.369 79.527 67.594C87.767 53.818 84.371 36.054 71.63 26.29C81.547 36.804 83.066 52.707 75.32 64.909Z" fill="#00A94F"/>
<path d="M26.47 67.11C20.745 53.31 25.463 37.388 37.78 28.934C50.099 20.481 66.653 21.806 77.47 32.11C67.452 18.963 48.996 15.754 35.128 24.747C21.26 33.741 16.662 51.901 24.58 66.41L18.86 84.81L26.47 67.11Z" fill="#F15D22"/>
<path d="M24.58 66.41C17.477 53.29 20.515 36.989 31.868 27.308C43.221 17.628 59.797 17.203 71.63 26.29C60.279 14.338 41.648 13.114 28.832 23.48C16.015 33.846 13.315 52.32 22.63 65.92L18.87 84.82L24.58 66.41Z" fill="#D0232B"/>
</svg>
