<svg xmlns="http://www.w3.org/2000/svg" viewBox="0 0 577.33 131.11"><path d="M24.49 9.31h22.34v40.75L70.08 9.31h21.83L75.41 66.9H58.2l44.96 22.91-22 34.34-34.5-41.17v29.5H7.08l14-45.75H7.18zm107.86 25.64h21v21.33h15.11l6.8-21.33h20.21l-7.91 26.79 13.37 26.5h-21.04l-10.78-21.52-15.8.06v21.46h-20.96zm147.97 52.43-15.83-52.43h-44.17l-15.86 50.68s-.14 2.31-.17 2.5l20.42.04 3.06-10.62h29.06l3.11 10.58s20.22.08 20.39 0 0-.75 0-.75ZM231.37 67.1l5.44-18.89h10.78l5.56 18.89zM404.9 87.38l-15.83-52.43H344.9l-15.86 50.68s-.14 2.31-.17 2.5l20.42.04 3.06-10.62h29.06l3.11 10.58s20.22.08 20.39 0 0-.75 0-.75ZM355.96 67.1l5.44-18.89h10.78l5.56 18.89zM567.3 87.38l-15.83-52.43H507.3l-15.86 50.68s-.14 2.31-.17 2.5l20.42.04 3.06-10.62h29.06l3.11 10.58s20.22.08 20.39 0 0-.75 0-.75ZM518.44 67.1l5.44-18.89h10.78l5.56 18.89zM273.49 34.95h62.5l-4.17 13.26h-16.5s.33 39.95 0 39.95H294.4V48.21h-17.08zm137.08 53.22V34.95h37.17l16.42 40.83V34.95h20.58v53.22s-31.27.23-31.5 0-15.75-39.95-15.75-39.95h-5.75v39.95z" style="fill:#f4ff00"/></svg>