<?xml version="1.0" encoding="UTF-8"?><svg id="a" xmlns="http://www.w3.org/2000/svg" viewBox="0 0 453 384"><defs><style>.b{fill:#e2e2e2;}.c{fill:#e0e0e0;}.d{fill:#c4c4c4;}.e{fill:#9e9e9e;}.f{fill:#c8c8c8;}</style></defs><path d="M211.37,147.98l-.02,5.97h141.9c21.24-.01,37.91,16.45,37.91,37.4l.04,149.06c0,21.07-16.62,37.79-37.71,37.79l-188.04-.06c-20.6,0-37.22-16.63-37.22-37.12l.02-150.13c0-19.99,15.88-35.73,35.55-36.93l.02-4.99"/><path d="M211.37,149.96l-.17-47.04c-.14-40.25-26.71-76.45-64.44-90.44C112.68-.16,74.43,8.8,48.62,34.03c-18.16,17.75-28.88,41.31-28.95,66.74l-.04,2.18c-.02,9.07,7.09,16.28,16.18,16.29h15.04c9.1.01,16.31-7.08,16.33-16.2l.04-1.52c.04-15.75,8.46-29.91,20.43-38.29,13.64-9.55,30.5-11.61,45.68-5.31,18.26,7.58,30.32,25.35,30.37,45.16l.12,45.9"/><path class="c" d="M361.84,166.45c.41.57.8,1.16,1.09,1.79,2.45,5.33-.52,27.37-1.72,34.37-13.86,80.54-86.47,144.35-167.97,148.56l-50.31.57-1.38-1.49c-1.21-2.69-2.07-5.12-2.07-8.21v-150.49c-.01-16.11,13.23-27.23,28.88-26.47,13.03.63,25.12.13,38.36.12l147.5-.02c2.95,0,5.37.51,7.62,1.28Z"/><path class="d" d="M141.55,350.24l44.2-.35c97.95-.78,181.36-87.27,176.09-183.44,10.92,3.74,18.05,13.33,18.05,24.88l.02,149.08c0,14.85-11.54,26.42-26.42,26.42l-188.04-.03c-11.04,0-20.56-6.86-23.9-16.57Z"/><path class="b" d="M175.5,142.54c.07.59.26,1.47.67,1.5,2.65.18,22.18.74,23.05-.02.28-.25.47-.6.64-.99l-.14-46.28c-3.19-33.87-25.2-63.41-57.15-74.94-29.69-10.72-62.75-2.95-85.38,18.79-16.57,15.91-25.99,37.23-26.02,60.18l-.02,1.11c0,2.59,1.89,4.87,4.6,4.95,5.31.15,10.47.15,15.77,0,2.65-.07,4.55-2.27,4.56-4.81l.08-2.24c.09-19.3,10.59-36.75,25.36-47.01,16.77-11.64,37.43-14.05,55.95-6.52,22.36,9.09,37.46,30.57,37.67,54.54l.37,41.74Z"/><path class="f" d="M200.2,147.98c.1,1.86.1,3.8-.36,5.85l-24.75-.25.05-5.06"/><path class="f" d="M175.14,148.53l.06-5.96h.68s24.01-.02,24.01-.02c-.02,1.78.2,3.58.31,5.44"/><path d="M280.48,314.32l-41.65-.02c-3.76-.08-6-3.15-5.52-6.84l5.77-44.22c-9.73-11.34-8.84-27.6,1.46-37.68,10.49-10.27,27.19-10.42,37.76-.52,10.91,10.21,11.76,26.83,1.97,38.24l5.68,44.21c.45,3.46-1.61,6.55-5.48,6.83Z"/><path class="e" d="M273.99,302.94l-28.64.12,5.24-40.7c.32-2.29-.6-4.16-2.17-5.69-6.53-6.38-6.34-16.54-.25-22.75s16.32-6.35,22.51-.5c6.78,6.42,6.88,16.99.12,23.48-1.58,1.51-2.24,3.36-2,5.65l5.19,40.39Z"/></svg>