<?xml version="1.0" encoding="UTF-8"?><svg id="a" xmlns="http://www.w3.org/2000/svg" xmlns:xlink="http://www.w3.org/1999/xlink" viewBox="0 0 287.62 181.33"><defs><style>.k{stroke:url(#j);}.k,.l,.m,.n,.o,.p,.q,.r,.s{fill:#fff;stroke-miterlimit:10;}.l{stroke:url(#i);}.m{stroke:url(#c);}.n{stroke:url(#h);}.o{stroke:url(#b);}.p{stroke:url(#g);}.q{stroke:url(#e);}.r{stroke:url(#f);}.t{fill:#e0059d;}.s{stroke:url(#d);}</style><linearGradient id="b" x1="94.8" y1="112.86" x2="94.8" y2="150.88" gradientUnits="userSpaceOnUse"><stop offset="0" stop-color="#ce1964"/><stop offset="1" stop-color="#363aa2"/></linearGradient><linearGradient id="c" x1="131.17" y1="112.43" x2="131.17" y2="151.3" xlink:href="#b"/><linearGradient id="d" x1="169.1" x2="169.1" y2="151.3" xlink:href="#b"/><linearGradient id="e" x1="197.2" y1="99.46" x2="197.2" xlink:href="#b"/><linearGradient id="f" x1="216.89" y1="102.49" x2="216.89" xlink:href="#b"/><linearGradient id="g" x1="247.75" y1="112.36" x2="247.75" y2="151.3" xlink:href="#b"/><linearGradient id="h" x1="15.76" y1="81.84" x2="70.83" y2="81.84" gradientUnits="userSpaceOnUse"><stop offset="0" stop-color="#ce1964"/><stop offset="1" stop-color="#363aa2"/></linearGradient><linearGradient id="i" x1="74.22" y1="62.35" x2="117.08" y2="62.35" xlink:href="#h"/><linearGradient id="j" x1="122.75" y1="62.35" x2="176.42" y2="62.35" xlink:href="#h"/></defs><path class="t" d="M91.29,152.68l-12.92-37.02h10.54l8.66,26.65,8.53-26.65h10.33l-12.92,37.02h-12.21Z"/><path class="t" d="M151.01,144.1h1.12v8.58h-5.05c-2.41,0-4.13-.53-5.15-1.6-1.02-1.07-1.51-2.55-1.47-4.45-2.64,4.31-6.55,6.47-11.73,6.47-3.98,0-7.2-.95-9.67-2.85s-3.7-4.57-3.7-8.02c0-3.94,1.42-6.97,4.25-9.11s6.92-3.2,12.26-3.2h7.13v-1.79c0-1.69-.57-3.02-1.71-4.01s-2.72-1.48-4.74-1.48c-1.91,0-3.48.41-4.71,1.23s-1.94,1.92-2.15,3.3h-9.48c.34-3.61,2.01-6.5,5.01-8.68s6.87-3.27,11.59-3.27c5.07,0,8.98,1.15,11.73,3.45s4.13,5.64,4.13,10.02v13.11c0,.91.18,1.52.55,1.83.36.3.96.46,1.77.46ZM139.01,137.42v-.74h-7.2c-2.07,0-3.67.42-4.81,1.27s-1.71,2.04-1.71,3.59c0,1.29.48,2.31,1.43,3.08s2.25,1.14,3.89,1.14c2.57,0,4.6-.76,6.09-2.27,1.49-1.51,2.26-3.53,2.3-6.06Z"/><path class="t" d="M179.06,134.18v-18.53h9.85v37.02h-8.73l-.92-4.46c-2.61,3.26-6.13,4.89-10.54,4.89-1.55,0-2.99-.16-4.33-.49-1.34-.33-2.63-.9-3.87-1.71s-2.3-1.84-3.17-3.09c-.88-1.25-1.57-2.87-2.1-4.83-.52-1.97-.78-4.23-.78-6.79v-20.53h9.86v19.16c0,3.35.56,5.84,1.67,7.45s2.88,2.43,5.29,2.43,4.37-.9,5.73-2.71c1.36-1.8,2.05-4.41,2.05-7.8Z"/><path class="t" d="M194.86,152.68v-50.41h9.86v50.41h-9.86Z"/><path class="t" d="M213.29,142.1v-17.86h-5.93v-8.58h5.93v-10.37h9.86v10.37h8.25v8.58h-8.25v16.21c0,1.31.27,2.25.8,2.81s1.45.84,2.75.84h4.91v8.58h-8.05c-6.84,0-10.26-3.53-10.26-10.58Z"/><path class="t" d="M233.6,140.37h9.38c.18,1.66.96,2.99,2.32,3.97s3.22,1.48,5.56,1.48c2.09,0,3.72-.33,4.89-1,1.17-.67,1.76-1.65,1.76-2.94s-.57-2.23-1.71-2.74c-.82-.38-2.77-.77-5.87-1.2h-.03l-.03-.04h-.21l-.03-.04h-.21l-.03-.04h-.14c-1.84-.23-3.44-.49-4.79-.77s-2.7-.68-4.04-1.2-2.43-1.14-3.26-1.88-1.5-1.68-2.01-2.81-.77-2.44-.77-3.92c0-3.66,1.42-6.6,4.25-8.82s6.55-3.32,11.17-3.27c4.89,0,8.85,1.06,11.88,3.18s4.67,5.04,4.89,8.77h-9.45c-.14-1.48-.83-2.64-2.08-3.48-1.25-.84-2.88-1.27-4.88-1.27s-3.51.33-4.65,1c-1.15.67-1.72,1.6-1.72,2.79,0,.45.07.84.22,1.18s.4.63.75.88.72.45,1.09.62.92.31,1.62.44c.7.13,1.34.23,1.91.32s1.35.18,2.35.3c.14.02.24.04.31.04,1.84.19,3.43.42,4.77.69,1.34.27,2.69.67,4.06,1.21s2.48,1.2,3.34,1.97,1.56,1.78,2.1,3.01.8,2.65.8,4.27c0,3.66-1.51,6.57-4.52,8.75-3.01,2.18-6.95,3.27-11.82,3.27s-9.09-1.14-12.21-3.41c-3.11-2.27-4.77-5.38-4.98-9.32Z"/><path class="o" d="M88.7,150.38l-12.92-37.02h10.54l8.66,26.65,8.53-26.65h10.33l-12.92,37.02h-12.21Z"/><path class="m" d="M148.42,141.8h1.12v8.58h-5.05c-2.41,0-4.13-.53-5.15-1.6-1.02-1.07-1.51-2.55-1.47-4.45-2.64,4.31-6.55,6.47-11.73,6.47-3.98,0-7.2-.95-9.67-2.85s-3.7-4.57-3.7-8.02c0-3.94,1.42-6.97,4.25-9.11s6.92-3.2,12.26-3.2h7.13v-1.79c0-1.69-.57-3.02-1.71-4.01s-2.72-1.48-4.74-1.48c-1.91,0-3.48.41-4.71,1.23s-1.94,1.92-2.15,3.3h-9.48c.34-3.61,2.01-6.5,5.01-8.68s6.87-3.27,11.59-3.27c5.07,0,8.98,1.15,11.73,3.45s4.13,5.64,4.13,10.02v13.11c0,.91.18,1.52.55,1.83.36.3.96.46,1.77.46ZM136.42,135.12v-.74h-7.2c-2.07,0-3.67.42-4.81,1.27s-1.71,2.04-1.71,3.59c0,1.29.48,2.31,1.43,3.08s2.25,1.14,3.89,1.14c2.57,0,4.6-.76,6.09-2.27,1.49-1.51,2.26-3.53,2.3-6.06Z"/><path class="s" d="M176.47,131.88v-18.53h9.85v37.02h-8.73l-.92-4.46c-2.61,3.26-6.13,4.89-10.54,4.89-1.55,0-2.99-.16-4.33-.49-1.34-.33-2.63-.9-3.87-1.71s-2.3-1.84-3.17-3.09c-.88-1.25-1.57-2.87-2.1-4.83-.52-1.97-.78-4.23-.78-6.79v-20.53h9.86v19.16c0,3.35.56,5.84,1.67,7.45s2.88,2.43,5.29,2.43,4.37-.9,5.73-2.71c1.36-1.8,2.05-4.41,2.05-7.8Z"/><path class="q" d="M192.27,150.38v-50.41h9.86v50.41h-9.86Z"/><path class="r" d="M210.7,139.79v-17.86h-5.93v-8.58h5.93v-10.37h9.86v10.37h8.25v8.58h-8.25v16.21c0,1.31.27,2.25.8,2.81s1.45.84,2.75.84h4.91v8.58h-8.05c-6.84,0-10.26-3.53-10.26-10.58Z"/><path class="p" d="M231.01,138.07h9.38c.18,1.66.96,2.99,2.32,3.97s3.22,1.48,5.56,1.48c2.09,0,3.72-.33,4.89-1,1.17-.67,1.76-1.65,1.76-2.94s-.57-2.23-1.71-2.74c-.82-.38-2.77-.77-5.87-1.2h-.03l-.03-.04h-.21l-.03-.04h-.21l-.03-.04h-.14c-1.84-.23-3.44-.49-4.79-.77s-2.7-.68-4.04-1.2-2.43-1.14-3.26-1.88-1.5-1.68-2.01-2.81-.77-2.44-.77-3.92c0-3.66,1.42-6.6,4.25-8.82s6.55-3.32,11.17-3.27c4.89,0,8.85,1.06,11.88,3.18s4.67,5.04,4.89,8.77h-9.45c-.14-1.48-.83-2.64-2.08-3.48-1.25-.84-2.88-1.27-4.88-1.27s-3.51.33-4.65,1c-1.15.67-1.72,1.6-1.72,2.79,0,.45.07.84.22,1.18s.4.63.75.88.72.45,1.09.62.92.31,1.62.44c.7.13,1.34.23,1.91.32s1.35.18,2.35.3c.14.02.24.04.31.04,1.84.19,3.43.42,4.77.69,1.34.27,2.69.67,4.06,1.21s2.48,1.2,3.34,1.97,1.56,1.78,2.1,3.01.8,2.65.8,4.27c0,3.66-1.51,6.57-4.52,8.75-3.01,2.18-6.95,3.27-11.82,3.27s-9.09-1.14-12.21-3.41c-3.11-2.27-4.77-5.38-4.98-9.32Z"/><path class="t" d="M38.13,100.26l-19.36-52.18h14.67l12.23,36.95,11.95-36.95h14.77l-22.32,59.27c-.89,2.4-1.68,4.29-2.37,5.69s-1.55,2.69-2.58,3.87c-1.04,1.18-2.23,2.02-3.58,2.51-1.35.49-3,.74-4.95.74h-13.43v-12.02h7.65c1.75,0,3.03-.3,3.82-.89.8-.59,1.54-1.77,2.25-3.55l1.24-3.45Z"/><path class="t" d="M118.87,99.97h-41.87V29.31h14.67v57.65h27.19v13.01Z"/><path class="t" d="M125.54,99.97V29.31h27.91c7.46,0,13.45,2.14,17.97,6.41s6.79,9.99,6.79,17.15-2.26,12.77-6.79,17.02c-4.52,4.25-10.51,6.38-17.97,6.38h-13.24v23.7h-14.67ZM152.06,41.92h-11.85v21.73h11.85c3.44,0,6.17-.97,8.2-2.91,2.02-1.94,3.03-4.57,3.03-7.88s-1.01-6.01-3.03-7.98c-2.02-1.97-4.76-2.96-8.2-2.96Z"/><path class="n" d="M35.84,97.98l-19.36-52.18h14.67l12.23,36.95,11.95-36.95h14.77l-22.32,59.27c-.89,2.4-1.68,4.29-2.37,5.69s-1.55,2.69-2.58,3.87c-1.04,1.18-2.23,2.02-3.58,2.51-1.35.49-3,.74-4.95.74h-13.43v-12.02h7.65c1.75,0,3.03-.3,3.82-.89.8-.59,1.54-1.77,2.25-3.55l1.24-3.45Z"/><path class="l" d="M116.58,97.68h-41.87V27.02h14.67v57.65h27.19v13.01Z"/><path class="k" d="M123.25,97.68V27.02h27.91c7.46,0,13.45,2.14,17.97,6.41s6.79,9.99,6.79,17.15-2.26,12.77-6.79,17.02c-4.52,4.25-10.51,6.38-17.97,6.38h-13.24v23.7h-14.67ZM149.78,39.64h-11.85v21.73h11.85c3.44,0,6.17-.97,8.2-2.91,2.02-1.94,3.03-4.57,3.03-7.88s-1.01-6.01-3.03-7.98c-2.02-1.97-4.76-2.96-8.2-2.96Z"/></svg>