<?xml version="1.0" encoding="UTF-8"?><svg id="a" xmlns="http://www.w3.org/2000/svg" xmlns:xlink="http://www.w3.org/1999/xlink" viewBox="0 0 301 237.11"><defs><style>.j{stroke:#e200dd;}.j,.k,.l,.m,.n,.o,.p,.q,.r,.s{stroke-miterlimit:10;}.j,.o{fill:blue;}.k{fill:url(#b);}.k,.l,.m,.n,.p,.q,.r,.s{stroke:#fff;}.k,.m,.n,.p,.r,.s{stroke-width:2px;}.t{opacity:.53;}.l{fill:url(#h);}.l,.q{stroke-width:3px;}.m{fill:url(#d);}.n{fill:url(#c);}.o{stroke:#e203a8;}.p{fill:url(#e);}.q{fill:url(#i);}.r{fill:url(#f);}.s{fill:url(#g);}</style><linearGradient id="b" x1="33.19" y1="194.15" x2="72.92" y2="154.41" gradientUnits="userSpaceOnUse"><stop offset="0" stop-color="#ce1964"/><stop offset="1" stop-color="#363aa2"/></linearGradient><linearGradient id="c" x1="72.8" y1="211.68" x2="113.23" y2="171.25" xlink:href="#b"/><linearGradient id="d" x1="117.43" y1="197.45" x2="157.55" y2="157.34" xlink:href="#b"/><linearGradient id="e" x1="159.61" y1="202.64" x2="190.05" y2="172.2" xlink:href="#b"/><linearGradient id="f" x1="189.78" y1="194.26" x2="227.31" y2="156.72" xlink:href="#b"/><linearGradient id="g" x1="230.68" y1="200.35" x2="265.73" y2="165.31" xlink:href="#b"/><linearGradient id="h" x1="26.24" y1="137.56" x2="103.51" y2="60.29" gradientUnits="userSpaceOnUse"><stop offset="0" stop-color="#ce1964"/><stop offset="1" stop-color="#363aa2"/></linearGradient><linearGradient id="i" x1="126.3" y1="127.17" x2="234.03" y2="19.45" xlink:href="#h"/></defs><g class="t"><path class="o" d="M49.81,210.5l-16.61-50.41h11.12l11.73,37.3,12-37.3h10.81l-16.54,50.41h-12.52Z"/><path class="o" d="M82.73,210.5h-10.84l17.87-50.41h12.58l17.73,50.41h-11.22l-3.79-11h-18.59l-3.75,11ZM95.73,171.62l-6.45,19.16h12.92l-6.48-19.16Z"/><path class="o" d="M120.43,188.77v-28.69h10.47v29.25c0,4.08.77,7.15,2.3,9.21,1.53,2.06,3.95,3.09,7.25,3.09s5.76-1.03,7.31-3.09c1.56-2.06,2.34-5.13,2.34-9.21v-29.25h10.47v28.69c0,7.2-1.71,12.69-5.13,16.47-3.42,3.79-8.42,5.68-14.99,5.68s-11.52-1.89-14.92-5.68c-3.4-3.78-5.1-9.28-5.1-16.47Z"/><path class="o" d="M197.62,210.5h-29.87v-50.41h10.47v41.13h19.4v9.28Z"/><path class="o" d="M192.18,169.4v-9.32h38.77v9.32h-14.19v41.1h-10.47v-41.1h-14.12Z"/><path class="o" d="M231.47,193.94l10.26.14c.18,2.48,1.18,4.49,2.98,6.01,1.81,1.52,4.19,2.29,7.14,2.29,2.48,0,4.49-.54,6.04-1.62,1.55-1.08,2.32-2.59,2.32-4.54,0-.54-.05-1.02-.15-1.44-.1-.42-.31-.81-.61-1.18-.31-.36-.6-.68-.89-.95-.28-.27-.74-.53-1.36-.79-.63-.26-1.18-.47-1.65-.65-.48-.18-1.19-.37-2.15-.6-.96-.22-1.76-.4-2.42-.54-.66-.14-1.63-.34-2.9-.6-1.84-.35-3.44-.73-4.81-1.14-1.36-.41-2.76-.98-4.18-1.72-1.42-.74-2.58-1.6-3.48-2.6-.9-1-1.63-2.26-2.2-3.8-.57-1.53-.85-3.3-.85-5.29,0-4.5,1.67-8.17,5.01-11,3.34-2.84,7.75-4.25,13.23-4.25,5.75,0,10.34,1.44,13.76,4.31,3.42,2.87,5.17,6.72,5.23,11.55h-10.26c-.25-2.18-1.14-3.93-2.68-5.24-1.53-1.31-3.55-1.97-6.05-1.97-2.32,0-4.18.5-5.58,1.49-1.4,1-2.1,2.44-2.1,4.34,0,.59.09,1.11.27,1.58.18.47.4.88.65,1.23s.67.69,1.25,1c.58.32,1.12.58,1.64.79.51.21,1.26.44,2.25.69.99.25,1.86.45,2.63.6.76.15,1.85.37,3.26.65,1.89.35,3.52.73,4.89,1.12,1.38.4,2.79.96,4.25,1.69,1.45.73,2.63,1.58,3.53,2.55.9.97,1.64,2.22,2.22,3.74.58,1.52.86,3.27.84,5.24-.05,4.73-1.81,8.57-5.3,11.5-3.49,2.93-8.09,4.39-13.79,4.39-6.18,0-11.09-1.54-14.71-4.62-3.63-3.08-5.46-7.2-5.51-12.36Z"/></g><path class="k" d="M46.81,207.77l-16.61-50.41h11.12l11.73,37.3,12-37.3h10.81l-16.54,50.41h-12.52Z"/><path class="n" d="M79.73,207.77h-10.84l17.87-50.41h12.58l17.73,50.41h-11.22l-3.79-11h-18.59l-3.75,11ZM92.73,168.89l-6.45,19.16h12.92l-6.48-19.16Z"/><path class="m" d="M117.43,186.05v-28.69h10.47v29.25c0,4.08.77,7.15,2.3,9.21,1.53,2.06,3.95,3.09,7.25,3.09s5.76-1.03,7.31-3.09c1.56-2.06,2.34-5.13,2.34-9.21v-29.25h10.47v28.69c0,7.2-1.71,12.69-5.13,16.47-3.42,3.79-8.42,5.68-14.99,5.68s-11.52-1.89-14.92-5.68c-3.4-3.78-5.1-9.28-5.1-16.47Z"/><path class="p" d="M194.62,207.77h-29.87v-50.41h10.47v41.13h19.4v9.28Z"/><path class="r" d="M189.18,166.68v-9.32h38.77v9.32h-14.19v41.1h-10.47v-41.1h-14.12Z"/><path class="s" d="M228.47,191.21l10.26.14c.18,2.48,1.18,4.49,2.98,6.01,1.81,1.52,4.19,2.29,7.14,2.29,2.48,0,4.49-.54,6.04-1.62,1.55-1.08,2.32-2.59,2.32-4.54,0-.54-.05-1.02-.15-1.44-.1-.42-.31-.81-.61-1.18-.31-.36-.6-.68-.89-.95-.28-.27-.74-.53-1.36-.79-.63-.26-1.18-.47-1.65-.65-.48-.18-1.19-.37-2.15-.6-.96-.22-1.76-.4-2.42-.54-.66-.14-1.63-.34-2.9-.6-1.84-.35-3.44-.73-4.81-1.14-1.36-.41-2.76-.98-4.18-1.72-1.42-.74-2.58-1.6-3.48-2.6-.9-1-1.63-2.26-2.2-3.8-.57-1.53-.85-3.3-.85-5.29,0-4.5,1.67-8.17,5.01-11,3.34-2.84,7.75-4.25,13.23-4.25,5.75,0,10.34,1.44,13.76,4.31,3.42,2.87,5.17,6.72,5.23,11.55h-10.26c-.25-2.18-1.14-3.93-2.68-5.24-1.53-1.31-3.55-1.97-6.05-1.97-2.32,0-4.18.5-5.58,1.49-1.4,1-2.1,2.44-2.1,4.34,0,.59.09,1.11.27,1.58.18.47.4.88.65,1.23s.67.69,1.25,1c.58.32,1.12.58,1.64.79.51.21,1.26.44,2.25.69.99.25,1.86.45,2.63.6.76.15,1.85.37,3.26.65,1.89.35,3.52.73,4.89,1.12,1.38.4,2.79.96,4.25,1.69,1.45.73,2.63,1.58,3.53,2.55.9.97,1.64,2.22,2.22,3.74.58,1.52.86,3.27.84,5.24-.05,4.73-1.81,8.57-5.3,11.5-3.49,2.93-8.09,4.39-13.79,4.39-6.18,0-11.09-1.54-14.71-4.62-3.63-3.08-5.46-7.2-5.51-12.36Z"/><g class="t"><path class="j" d="M132.77,148.91H37.48V27.77h33.39v98.84h61.89v22.3Z"/><path class="j" d="M147.93,148.91V27.77h63.52c16.97,0,30.6,3.66,40.9,10.98,10.3,7.32,15.45,17.12,15.45,29.4s-5.15,21.89-15.45,29.19c-10.3,7.29-23.93,10.94-40.9,10.94h-30.13v40.63h-33.39ZM208.3,49.4h-26.97v37.26h26.97c7.83,0,14.05-1.66,18.65-4.98,4.6-3.32,6.91-7.83,6.91-13.52s-2.3-10.31-6.91-13.69c-4.6-3.38-10.82-5.07-18.65-5.07Z"/></g><path class="l" d="M127.99,144.02H32.71V22.88h33.39v98.84h61.89v22.3Z"/><path class="q" d="M143.16,144.02V22.88h63.52c16.97,0,30.6,3.66,40.9,10.98,10.3,7.32,15.45,17.12,15.45,29.4s-5.15,21.89-15.45,29.19c-10.3,7.29-23.93,10.94-40.9,10.94h-30.13v40.63h-33.39ZM203.52,44.51h-26.97v37.26h26.97c7.83,0,14.05-1.66,18.65-4.98,4.6-3.32,6.91-7.83,6.91-13.52s-2.3-10.31-6.91-13.69c-4.6-3.38-10.82-5.07-18.65-5.07Z"/></svg>