<svg xmlns="http://www.w3.org/2000/svg" id="a" viewBox="0 0 300 85"><defs><style>.d,.e{fill:#fff}.e{fill-rule:evenodd}</style></defs><path d="M132.67 18.27c9.29 0 16.83 7.82 16.83 17.46v10.04c0 9.64-7.54 17.46-16.83 17.46-1.46 0-2.88-.19-4.23-.56v1.18c0 7.05-5.54 12.79-12.41 12.9h-.21V38.34h.02v-2.62c0-9.64 7.54-17.46 16.83-17.46Zm75.37 0c9.3 0 16.84 7.86 16.84 17.56v10.1c0 9.7-7.54 17.56-16.84 17.56s-16.84-7.86-16.84-17.56v-10.1c0-9.7 7.54-17.56 16.84-17.56m-37.69-.83c9.3 0 16.84 7.86 16.84 17.56v10.1c0 9.7-7.54 17.56-16.84 17.56s-16.84-7.86-16.84-17.56V35c0-9.7 7.54-17.56 16.84-17.56M241.72 5v44.55c0 7.17-5.63 13-12.62 13.11h-.21V18.12c0-7.24 5.74-13.11 12.83-13.11Zm-33.68 26.44c-2.33 0-4.21 1.97-4.21 4.39v10.1c0 2.42 1.88 4.39 4.21 4.39s4.21-1.96 4.21-4.39v-10.1c0-2.42-1.88-4.39-4.21-4.39m-75.37-.07c-2.32 0-4.21 1.95-4.21 4.36v10.04c0 2.41 1.88 4.37 4.21 4.37s4.21-1.95 4.21-4.37V35.73c0-2.41-1.88-4.36-4.21-4.36m37.68-.76c-2.32 0-4.21 1.96-4.21 4.39v10.1c0 2.42 1.88 4.39 4.21 4.39s4.21-1.97 4.21-4.39V35c0-2.42-1.89-4.39-4.21-4.39m18.77 45h-.39c-.39 0-.73-.39-.73-1v-2.89h.83c.39 0 .68-.28.68-.67 0-.2-.07-.38-.2-.5a.66.66 0 0 0-.49-.19h-.83v-1.62c0-.44-.31-.77-.72-.77s-.72.33-.72.77v1.62h-.38c-.19 0-.36.07-.49.19-.13.13-.19.3-.19.5 0 .39.3.67.68.67h.38v2.89c0 1.44.93 2.54 2.17 2.54h.21c.45 0 .82-.31.82-.77 0-.42-.26-.77-.64-.77Z" class="d"/><path d="M197.79 73.63c-.01-2.09-1.38-3.58-3.3-3.58-.97 0-1.8.37-2.39 1.01s-.93 1.53-.93 2.57.34 1.93.93 2.56 1.42 1 2.39 1 1.79-.37 2.38-1c.59-.64.93-1.53.93-2.56Zm-3.31-2.16c.56 0 1.03.22 1.36.6s.53.92.53 1.56-.2 1.18-.53 1.55-.8.6-1.36.6-1.03-.22-1.37-.6c-.33-.38-.54-.91-.54-1.55 0-1.28.79-2.16 1.9-2.16Zm8.31 8.47c-1.13 0-2.16-.49-2.85-1.41a.7.7 0 0 1-.15-.55.7.7 0 0 1 .29-.46c.34-.25.76-.14.99.18.38.52.97.83 1.74.83.52 0 .99-.2 1.33-.59s.56-.96.56-1.73v-.1c-.51.69-1.25 1.09-2.12 1.09s-1.67-.37-2.22-1.01c-.55-.63-.86-1.53-.86-2.56s.34-1.94.93-2.57c.59-.64 1.42-1.01 2.39-1.01 1.92 0 3.29 1.49 3.3 3.58v2.66c0 2.02-1.35 3.65-3.33 3.65m.02-4.16c-.56 0-1.03-.22-1.37-.6-.33-.38-.53-.91-.53-1.55 0-1.28.79-2.16 1.9-2.16.56 0 1.03.22 1.36.6s.53.92.53 1.56-.2 1.18-.53 1.55-.8.6-1.36.6m10.58-.39c-.25-.22-.62-.21-.9 0-.29.23-.81.44-1.25.44-1.04 0-1.81-.65-2.03-1.61h4.19c.19 0 .36-.07.48-.19.12-.13.19-.3.19-.5 0-1-.28-1.87-.8-2.49s-1.28-.98-2.21-.98-1.76.37-2.33 1.01c-.58.64-.91 1.53-.91 2.57s.35 1.93.96 2.56 1.46 1 2.46 1c.73 0 1.62-.32 2.17-.78a.64.64 0 0 0 .24-.51c0-.19-.1-.38-.25-.52Zm-2.32-3.97c.48 0 .86.17 1.14.46.24.26.41.61.5 1.04h-3.48c.1-.43.29-.78.57-1.04.31-.29.74-.47 1.28-.47Z" class="e"/><path d="M218.68 75.61h-.39c-.39 0-.73-.39-.73-1v-2.89h.83c.39 0 .68-.28.68-.67 0-.2-.07-.38-.19-.5a.67.67 0 0 0-.49-.19h-.83v-1.62c0-.44-.31-.77-.72-.77s-.72.33-.72.77v1.62h-.39c-.19 0-.36.07-.49.19-.13.13-.19.3-.19.5 0 .39.3.67.68.67h.39v2.89c0 1.44.93 2.54 2.16 2.54h.21c.45 0 .82-.31.82-.77 0-.42-.26-.77-.64-.77Zm5.63-5.57c-.69 0-1.32.23-1.81.64V68c0-.22-.07-.42-.2-.56s-.32-.22-.52-.22-.39.08-.52.22-.21.34-.21.56v8.37c0 .22.07.42.21.56.13.14.32.22.52.22s.39-.08.52-.22.2-.34.2-.56V72.9c0-.79.66-1.42 1.58-1.42.5 0 .92.15 1.21.45s.48.76.48 1.42v3.03c0 .44.32.78.73.78s.73-.34.73-.78v-3.03c0-1.06-.31-1.89-.84-2.45-.53-.57-1.26-.85-2.08-.85Z" class="d"/><path d="M234.71 74.22h-4.19c.22.96.99 1.61 2.03 1.61.44 0 .96-.21 1.25-.44.28-.22.65-.23.9 0 .15.15.25.33.25.52s-.08.38-.24.51c-.54.47-1.44.78-2.17.78-.99 0-1.85-.37-2.46-1s-.96-1.53-.96-2.56.33-1.93.91-2.57 1.39-1.01 2.34-1.01 1.69.36 2.21.98.79 1.49.79 2.49c0 .2-.07.38-.19.5-.12.13-.29.19-.48.19Zm-2.33-2.8c.48 0 .86.17 1.14.46.24.26.41.61.5 1.04h-3.48c.1-.43.29-.78.57-1.04.31-.29.74-.47 1.28-.47Z" class="e"/><path d="M240.39 70.03c-.69 0-1.32.27-1.79.71a.83.83 0 0 0-.18-.44c-.13-.14-.32-.2-.53-.2s-.4.06-.53.21c-.13.14-.19.34-.19.56v5.51c0 .23.06.43.19.57s.32.2.53.2.4-.06.53-.21c.13-.14.19-.34.19-.56v-3.6c0-.5.24-.88.66-1.11.43-.23 1.04-.3 1.75-.15.17.04.34.04.49-.04s.26-.23.31-.44c.03-.15.02-.29-.04-.42a.74.74 0 0 0-.29-.32c-.25-.17-.63-.26-1.1-.26Z" class="d"/><path d="M65.86 21.61c-.12-1.09.45-1.21.74-1.13 0 0 4.9 2.12 14.67 2.29 9.78.17 15.16-2.23 15.16-2.23.3-.07.86.05.74 1.14s-.31 4.24-.39 5.67h5.63c.69-.01 1.97.4 1.55 2.21-.08.37-.21 1-.37 1.81-.83 4.17-2.6 13.08-4.72 15.42-1.49 1.81-3.49 2.72-5.04 3.09-1.3.39-2.65.32-3.12.3h-.14c-1.04 1.59-3.7 5.01-6.02 6.04-.75.28-.75.56-.74.78v.05c.12 2.04.62 6.61 1.68 8.55.14.29.18.51.21.66.03.17.04.25.16.25h1.41c.15 0 .5 0 .74.31.13.16.35.16.59.15.32 0 .68-.01.89.38.23.42.18.86.15 1.09v.12h2.22c.27 0 .81.14.81.69v4.54c-.01.08-.02.15-.02.21q-.02.25.6.25h1.93c.12 0 .37.02.37.69v2.04c0 .15 0 .45-.67.45l-27.02-.06c-.67 0-.67-.3-.67-.46v-2.04c0-.66.25-.68.38-.68h1.93q.62 0 .6-.24V69.2c.02-.54.56-.68.83-.68h2.22v-.11c-.02-.23-.07-.68.16-1.09.21-.39.57-.38.89-.38.24 0 .46 0 .59-.15.24-.3.59-.3.74-.3h1.41c.12 0 .13-.08.16-.24.03-.15.07-.37.21-.66 1.07-1.93 1.6-6.5 1.73-8.54V57c0-.22.01-.5-.74-.78-2.31-1.03-4.95-4.47-5.98-6.06h-.14c-.47.02-1.82.08-3.11-.31-1.55-.38-3.55-1.29-5.03-3.11-2.1-2.35-3.82-11.27-4.62-15.44-.16-.81-.28-1.44-.36-1.81-.41-1.82.87-2.22 1.56-2.19h5.63c-.07-1.43-.24-4.57-.35-5.66ZM62.1 29.8c-.87-.01-.66 1.02-.5 1.8.02.1.04.2.06.29.14.79.79 4.05 2.51 9.3s5.05 5.63 6.5 5.16c-.99-2.19-3.08-9.21-3.5-11.63-.42-2.43-.94-4.86-1.56-4.87l-3.5-.06Zm39.25 2.1c.17-.78.39-1.81-.47-1.81h-3.5c-.62 0-1.19 2.42-1.65 4.84s-2.68 9.4-3.71 11.57c1.44.49 4.78.17 6.59-5.05 1.82-5.22 2.53-8.47 2.68-9.26.02-.09.04-.19.06-.29m-14.86 8.14-5.05 3.25-5.02-3.28 5.01 7.46 5.07-7.43Zm-5-10.98-5.1 8.9 5.06 3.24 5.08-3.21-5.03-8.93Z" style="fill-rule:evenodd;fill:#ffb636"/><path d="M96.96 20.71c-.01 1.46-6.9 2.58-15.38 2.5-8.48-.07-15.55-1.31-15.54-2.77s7.1-2.57 15.58-2.5 15.34 1.31 15.33 2.76Z" style="fill:#f09e0e"/><path d="M92.52 25.89c.76 0 .89 0 2.26-.49-.17.93-1.07 8-1.38 9.11-.82 2.97-1.75 7.55-2.96 8.43-.23.17-1.23 0-1.61-.25-.37-.25.93-2.79 2.51-8.18.9-5.82.62-8.34 1.17-8.62Z" style="fill:#ffcc4e"/></svg>