<?xml version="1.0" encoding="UTF-8"?><svg id="a" xmlns="http://www.w3.org/2000/svg" xmlns:xlink="http://www.w3.org/1999/xlink" viewBox="0 0 291.78 237.11"><defs><style>.s{fill:url(#o);}.s,.t,.u,.v,.w,.x,.y,.z,.aa,.ab,.ac,.ad,.ae,.af,.ag,.ah,.ai,.aj{stroke-miterlimit:10;}.s,.t,.u,.v,.w,.x,.y,.z,.aa,.ab,.ac,.ae,.af,.ag,.ah,.ai,.aj{stroke:#fff;stroke-width:2px;}.t{fill:url(#p);}.u{fill:url(#m);}.v{fill:url(#j);}.w{fill:url(#b);}.ak{opacity:.53;}.x{fill:url(#l);}.y{fill:url(#r);}.z{fill:url(#i);}.aa{fill:url(#d);}.ab{fill:url(#c);}.ac{fill:url(#k);}.ad{fill:blue;stroke:#e203a8;}.ae{fill:url(#n);}.af{fill:url(#h);}.ag{fill:url(#e);}.ah{fill:url(#f);}.ai{fill:url(#q);}.aj{fill:url(#g);}</style><linearGradient id="b" x1="32.33" y1="66.32" x2="67.83" y2="30.82" gradientUnits="userSpaceOnUse"><stop offset="0" stop-color="#ce1964"/><stop offset="1" stop-color="#363aa2"/></linearGradient><linearGradient id="c" x1="65.97" y1="63.59" x2="96.58" y2="32.99" xlink:href="#b"/><linearGradient id="d" x1="92.2" y1="71.36" x2="138.33" y2="25.23" xlink:href="#b"/><linearGradient id="e" x1="150.97" y1="69.46" x2="187.34" y2="33.09" xlink:href="#b"/><linearGradient id="f" x1="191.99" y1="68.6" x2="222.59" y2="37.99" xlink:href="#b"/><linearGradient id="g" x1="228.65" y1="69.55" x2="270.76" y2="27.44" xlink:href="#b"/><linearGradient id="h" x1="34.98" y1="145.77" x2="76.67" y2="104.08" xlink:href="#b"/><linearGradient id="i" x1="87.68" y1="133.73" x2="123.95" y2="97.45" xlink:href="#b"/><linearGradient id="j" x1="136.07" y1="133.73" x2="172.35" y2="97.45" xlink:href="#b"/><linearGradient id="k" x1="180.44" y1="136.99" x2="223.4" y2="94.02" xlink:href="#b"/><linearGradient id="l" x1="226.77" y1="126.91" x2="265.32" y2="88.36" xlink:href="#b"/><linearGradient id="m" x1="32.4" y1="194.15" x2="72.13" y2="154.41" xlink:href="#b"/><linearGradient id="n" x1="72.01" y1="211.68" x2="112.45" y2="171.25" xlink:href="#b"/><linearGradient id="o" x1="116.65" y1="197.45" x2="156.76" y2="157.34" xlink:href="#b"/><linearGradient id="p" x1="158.82" y1="202.64" x2="189.26" y2="172.2" xlink:href="#b"/><linearGradient id="q" x1="188.99" y1="194.26" x2="226.52" y2="156.72" xlink:href="#b"/><linearGradient id="r" x1="229.9" y1="200.35" x2="264.94" y2="165.31" xlink:href="#b"/></defs><g class="ak"><path class="ad" d="M32.4,59.94l10.58.14c.19,2.48,1.21,4.49,3.08,6.01,1.86,1.52,4.32,2.29,7.37,2.29,2.55,0,4.63-.54,6.22-1.62,1.59-1.08,2.39-2.59,2.39-4.54,0-.54-.05-1.02-.16-1.44s-.32-.81-.63-1.18c-.32-.36-.62-.68-.91-.95-.29-.27-.76-.53-1.41-.79-.65-.26-1.21-.47-1.71-.65s-1.23-.37-2.21-.6c-.98-.22-1.82-.4-2.5-.54-.68-.14-1.68-.34-2.99-.6-1.9-.35-3.55-.73-4.96-1.14-1.41-.41-2.84-.98-4.31-1.72-1.46-.74-2.66-1.6-3.59-2.6-.93-1-1.68-2.26-2.27-3.8-.59-1.53-.88-3.3-.88-5.29,0-4.5,1.72-8.17,5.17-11,3.45-2.84,7.99-4.25,13.64-4.25,5.93,0,10.66,1.44,14.19,4.31,3.53,2.87,5.33,6.72,5.4,11.55h-10.58c-.26-2.18-1.18-3.93-2.76-5.24-1.58-1.31-3.66-1.97-6.24-1.97-2.39,0-4.31.5-5.75,1.49-1.44,1-2.16,2.44-2.16,4.34,0,.59.09,1.11.28,1.58.19.47.41.88.67,1.23.26.35.69.69,1.28,1s1.16.58,1.69.79,1.3.44,2.32.69,1.92.45,2.71.6c.79.15,1.9.37,3.36.65,1.95.35,3.63.73,5.04,1.12,1.42.4,2.88.96,4.38,1.69,1.5.73,2.71,1.58,3.64,2.55.93.97,1.69,2.22,2.29,3.74.6,1.52.88,3.27.86,5.24-.05,4.73-1.87,8.57-5.47,11.5-3.6,2.93-8.34,4.39-14.22,4.39-6.38,0-11.43-1.54-15.17-4.62-3.74-3.08-5.63-7.2-5.68-12.36Z"/><path class="ad" d="M78.54,76.5V26.09h10.79v50.41h-10.79Z"/><path class="ad" d="M107.6,76.5h-10.58V26.09h9.77l21.41,31.78v-31.78h10.65v50.41h-9.88l-21.38-31.75v31.75Z"/><path class="ad" d="M168.5,76.92c-7.22,0-13.02-2.34-17.4-7.01-4.38-4.68-6.57-10.88-6.57-18.62s2.24-14,6.71-18.65c4.48-4.65,10.56-6.98,18.25-6.98,6.02,0,11.04,1.69,15.05,5.06s6.34,7.8,7,13.29h-10.79c-.66-2.84-1.99-5.08-3.99-6.73s-4.52-2.48-7.54-2.48c-4.17,0-7.49,1.52-9.97,4.57-2.47,3.05-3.71,7.02-3.71,11.92s1.22,8.93,3.66,11.95c2.44,3.02,5.78,4.54,10.02,4.54,1.48,0,2.89-.2,4.25-.6,1.36-.4,2.62-.99,3.8-1.78,1.17-.79,2.16-1.84,2.97-3.16.81-1.32,1.33-2.84,1.56-4.55v-.63h-12.52v-8.58h22.54v28.02h-7.56l-1.09-6.05c-1.45,1.92-3.42,3.48-5.91,4.68-2.48,1.2-5.4,1.79-8.75,1.79Z"/><path class="ad" d="M230.36,76.5h-30.8V26.09h10.79v41.13h20v9.28Z"/><path class="ad" d="M235.26,76.5V26.09h33.82v9.32h-23.03v11.29h18.74v8.86h-18.74v11.67h23.84v9.28h-34.63Z"/></g><path class="w" d="M29.74,56.94l10.58.14c.19,2.48,1.21,4.49,3.08,6.01,1.86,1.52,4.32,2.29,7.37,2.29,2.55,0,4.63-.54,6.22-1.62,1.59-1.08,2.39-2.59,2.39-4.54,0-.54-.05-1.02-.16-1.44s-.32-.81-.63-1.18c-.32-.36-.62-.68-.91-.95-.29-.27-.76-.53-1.41-.79-.65-.26-1.21-.47-1.71-.65s-1.23-.37-2.21-.6c-.98-.22-1.82-.4-2.5-.54-.68-.14-1.68-.34-2.99-.6-1.9-.35-3.55-.73-4.96-1.14-1.41-.41-2.84-.98-4.31-1.72-1.46-.74-2.66-1.6-3.59-2.6-.93-1-1.68-2.26-2.27-3.8-.59-1.53-.88-3.3-.88-5.29,0-4.5,1.72-8.17,5.17-11,3.45-2.84,7.99-4.25,13.64-4.25,5.93,0,10.66,1.44,14.19,4.31,3.53,2.87,5.33,6.72,5.4,11.55h-10.58c-.26-2.18-1.18-3.93-2.76-5.24-1.58-1.31-3.66-1.97-6.24-1.97-2.39,0-4.31.5-5.75,1.49-1.44,1-2.16,2.44-2.16,4.34,0,.59.09,1.11.28,1.58.19.47.41.88.67,1.23.26.35.69.69,1.28,1s1.16.58,1.69.79,1.3.44,2.32.69,1.92.45,2.71.6c.79.15,1.9.37,3.36.65,1.95.35,3.63.73,5.04,1.12,1.42.4,2.88.96,4.38,1.69,1.5.73,2.71,1.58,3.64,2.55.93.97,1.69,2.22,2.29,3.74.6,1.52.88,3.27.86,5.24-.05,4.73-1.87,8.57-5.47,11.5-3.6,2.93-8.34,4.39-14.22,4.39-6.38,0-11.43-1.54-15.17-4.62-3.74-3.08-5.63-7.2-5.68-12.36Z"/><path class="ab" d="M75.88,73.5V23.09h10.79v50.41h-10.79Z"/><path class="aa" d="M104.93,73.5h-10.58V23.09h9.77l21.41,31.78v-31.78h10.65v50.41h-9.88l-21.38-31.75v31.75Z"/><path class="ag" d="M165.84,73.92c-7.22,0-13.02-2.34-17.4-7.01-4.38-4.68-6.57-10.88-6.57-18.62s2.24-14,6.71-18.65c4.48-4.65,10.56-6.98,18.25-6.98,6.02,0,11.04,1.69,15.05,5.06s6.34,7.8,7,13.29h-10.79c-.66-2.84-1.99-5.08-3.99-6.73s-4.52-2.48-7.54-2.48c-4.17,0-7.49,1.52-9.97,4.57-2.47,3.05-3.71,7.02-3.71,11.92s1.22,8.93,3.66,11.95c2.44,3.02,5.78,4.54,10.02,4.54,1.48,0,2.89-.2,4.25-.6,1.36-.4,2.62-.99,3.8-1.78,1.17-.79,2.16-1.84,2.97-3.16.81-1.32,1.33-2.84,1.56-4.55v-.63h-12.52v-8.58h22.54v28.02h-7.56l-1.09-6.05c-1.45,1.92-3.42,3.48-5.91,4.68-2.48,1.2-5.4,1.79-8.75,1.79Z"/><path class="ah" d="M227.69,73.5h-30.8V23.09h10.79v41.13h20v9.28Z"/><path class="aj" d="M232.59,73.5V23.09h33.82v9.32h-23.03v11.29h18.74v8.86h-18.74v11.67h23.84v9.28h-34.63Z"/><g class="ak"><path class="ad" d="M44.14,143.5h-11.74l19.34-50.41h13.62l19.2,50.41h-12.15l-4.1-11h-20.12l-4.06,11ZM58.21,104.62l-6.98,19.16h13.99l-7.01-19.16Z"/><path class="ad" d="M87.15,126.94l11.11.14c.2,2.48,1.27,4.49,3.23,6.01,1.96,1.52,4.53,2.29,7.73,2.29,2.68,0,4.86-.54,6.53-1.62,1.67-1.08,2.51-2.59,2.51-4.54,0-.54-.06-1.02-.17-1.44s-.33-.81-.66-1.18c-.33-.36-.65-.68-.96-.95-.31-.27-.8-.53-1.48-.79-.68-.26-1.27-.47-1.79-.65-.52-.18-1.29-.37-2.33-.6-1.03-.22-1.91-.4-2.62-.54-.71-.14-1.76-.34-3.14-.6-1.99-.35-3.73-.73-5.21-1.14-1.48-.41-2.98-.98-4.52-1.72-1.54-.74-2.79-1.6-3.77-2.6-.97-1-1.77-2.26-2.38-3.8-.62-1.53-.92-3.3-.92-5.29,0-4.5,1.81-8.17,5.43-11,3.62-2.84,8.39-4.25,14.32-4.25,6.23,0,11.19,1.44,14.89,4.31,3.7,2.87,5.59,6.72,5.67,11.55h-11.11c-.27-2.18-1.24-3.93-2.9-5.24-1.66-1.31-3.85-1.97-6.55-1.97-2.51,0-4.52.5-6.04,1.49-1.51,1-2.27,2.44-2.27,4.34,0,.59.1,1.11.3,1.58.2.47.43.88.7,1.23.27.35.72.69,1.35,1,.63.32,1.22.58,1.77.79s1.37.44,2.44.69c1.07.25,2.02.45,2.84.6.82.15,2,.37,3.53.65,2.04.35,3.81.73,5.3,1.12,1.49.4,3.02.96,4.6,1.69,1.57.73,2.85,1.58,3.82,2.55.97.97,1.77,2.22,2.4,3.74.63,1.52.93,3.27.9,5.24-.05,4.73-1.96,8.57-5.74,11.5-3.78,2.93-8.76,4.39-14.93,4.39-6.69,0-12-1.54-15.93-4.62-3.93-3.08-5.91-7.2-5.96-12.36Z"/><path class="ad" d="M135.55,126.94l11.11.14c.2,2.48,1.27,4.49,3.23,6.01,1.96,1.52,4.53,2.29,7.73,2.29,2.68,0,4.86-.54,6.53-1.62,1.67-1.08,2.51-2.59,2.51-4.54,0-.54-.06-1.02-.17-1.44s-.33-.81-.66-1.18c-.33-.36-.65-.68-.96-.95-.31-.27-.8-.53-1.48-.79-.68-.26-1.27-.47-1.79-.65-.52-.18-1.29-.37-2.33-.6-1.03-.22-1.91-.4-2.62-.54-.71-.14-1.76-.34-3.14-.6-1.99-.35-3.73-.73-5.21-1.14-1.48-.41-2.98-.98-4.52-1.72-1.54-.74-2.79-1.6-3.77-2.6-.97-1-1.77-2.26-2.38-3.8-.62-1.53-.92-3.3-.92-5.29,0-4.5,1.81-8.17,5.43-11,3.62-2.84,8.39-4.25,14.32-4.25,6.23,0,11.19,1.44,14.89,4.31,3.7,2.87,5.59,6.72,5.67,11.55h-11.11c-.27-2.18-1.24-3.93-2.9-5.24-1.66-1.31-3.85-1.97-6.55-1.97-2.51,0-4.52.5-6.04,1.49-1.51,1-2.27,2.44-2.27,4.34,0,.59.1,1.11.3,1.58.2.47.43.88.7,1.23.27.35.72.69,1.35,1,.63.32,1.22.58,1.77.79s1.37.44,2.44.69c1.07.25,2.02.45,2.84.6.82.15,2,.37,3.53.65,2.04.35,3.81.73,5.3,1.12,1.49.4,3.02.96,4.6,1.69,1.57.73,2.85,1.58,3.82,2.55.97.97,1.77,2.22,2.4,3.74.63,1.52.93,3.27.9,5.24-.05,4.73-1.96,8.57-5.74,11.5-3.78,2.93-8.76,4.39-14.93,4.39-6.69,0-12-1.54-15.93-4.62-3.93-3.08-5.91-7.2-5.96-12.36Z"/><path class="ad" d="M186.64,143.5v-50.41h35.51v9.32h-24.18v11.29h19.68v8.86h-19.68v11.67h25.03v9.28h-36.36Z"/><path class="ad" d="M227.77,102.4v-9.32h41.97v9.32h-15.36v41.1h-11.33v-41.1h-15.28Z"/></g><path class="af" d="M41.45,140.5h-11.74l19.34-50.41h13.62l19.2,50.41h-12.15l-4.1-11h-20.12l-4.06,11ZM55.51,101.62l-6.98,19.16h13.99l-7.01-19.16Z"/><path class="z" d="M84.46,123.94l11.11.14c.2,2.48,1.27,4.49,3.23,6.01,1.96,1.52,4.53,2.29,7.73,2.29,2.68,0,4.86-.54,6.53-1.62,1.67-1.08,2.51-2.59,2.51-4.54,0-.54-.06-1.02-.17-1.44s-.33-.81-.66-1.18c-.33-.36-.65-.68-.96-.95-.31-.27-.8-.53-1.48-.79-.68-.26-1.27-.47-1.79-.65-.52-.18-1.29-.37-2.33-.6-1.03-.22-1.91-.4-2.62-.54-.71-.14-1.76-.34-3.14-.6-1.99-.35-3.73-.73-5.21-1.14-1.48-.41-2.98-.98-4.52-1.72-1.54-.74-2.79-1.6-3.77-2.6-.97-1-1.77-2.26-2.38-3.8-.62-1.53-.92-3.3-.92-5.29,0-4.5,1.81-8.17,5.43-11,3.62-2.84,8.39-4.25,14.32-4.25,6.23,0,11.19,1.44,14.89,4.31,3.7,2.87,5.59,6.72,5.67,11.55h-11.11c-.27-2.18-1.24-3.93-2.9-5.24-1.66-1.31-3.85-1.97-6.55-1.97-2.51,0-4.52.5-6.04,1.49-1.51,1-2.27,2.44-2.27,4.34,0,.59.1,1.11.3,1.58.2.47.43.88.7,1.23.27.35.72.69,1.35,1,.63.32,1.22.58,1.77.79s1.37.44,2.44.69c1.07.25,2.02.45,2.84.6.82.15,2,.37,3.53.65,2.04.35,3.81.73,5.3,1.12,1.49.4,3.02.96,4.6,1.69,1.57.73,2.85,1.58,3.82,2.55.97.97,1.77,2.22,2.4,3.74.63,1.52.93,3.27.9,5.24-.05,4.73-1.96,8.57-5.74,11.5-3.78,2.93-8.76,4.39-14.93,4.39-6.69,0-12-1.54-15.93-4.62-3.93-3.08-5.91-7.2-5.96-12.36Z"/><path class="v" d="M132.86,123.94l11.11.14c.2,2.48,1.27,4.49,3.23,6.01,1.96,1.52,4.53,2.29,7.73,2.29,2.68,0,4.86-.54,6.53-1.62,1.67-1.08,2.51-2.59,2.51-4.54,0-.54-.06-1.02-.17-1.44s-.33-.81-.66-1.18c-.33-.36-.65-.68-.96-.95-.31-.27-.8-.53-1.48-.79-.68-.26-1.27-.47-1.79-.65-.52-.18-1.29-.37-2.33-.6-1.03-.22-1.91-.4-2.62-.54-.71-.14-1.76-.34-3.14-.6-1.99-.35-3.73-.73-5.21-1.14-1.48-.41-2.98-.98-4.52-1.72-1.54-.74-2.79-1.6-3.77-2.6-.97-1-1.77-2.26-2.38-3.8-.62-1.53-.92-3.3-.92-5.29,0-4.5,1.81-8.17,5.43-11,3.62-2.84,8.39-4.25,14.32-4.25,6.23,0,11.19,1.44,14.89,4.31,3.7,2.87,5.59,6.72,5.67,11.55h-11.11c-.27-2.18-1.24-3.93-2.9-5.24-1.66-1.31-3.85-1.97-6.55-1.97-2.51,0-4.52.5-6.04,1.49-1.51,1-2.27,2.44-2.27,4.34,0,.59.1,1.11.3,1.58.2.47.43.88.7,1.23.27.35.72.69,1.35,1,.63.32,1.22.58,1.77.79s1.37.44,2.44.69c1.07.25,2.02.45,2.84.6.82.15,2,.37,3.53.65,2.04.35,3.81.73,5.3,1.12,1.49.4,3.02.96,4.6,1.69,1.57.73,2.85,1.58,3.82,2.55.97.97,1.77,2.22,2.4,3.74.63,1.52.93,3.27.9,5.24-.05,4.73-1.96,8.57-5.74,11.5-3.78,2.93-8.76,4.39-14.93,4.39-6.69,0-12-1.54-15.93-4.62-3.93-3.08-5.91-7.2-5.96-12.36Z"/><path class="ac" d="M183.95,140.5v-50.41h35.51v9.32h-24.18v11.29h19.68v8.86h-19.68v11.67h25.03v9.28h-36.36Z"/><path class="x" d="M225.08,99.4v-9.32h41.97v9.32h-15.36v41.1h-11.33v-41.1h-15.28Z"/><g class="ak"><path class="ad" d="M49.02,210.5l-16.61-50.41h11.12l11.73,37.3,12-37.3h10.81l-16.54,50.41h-12.52Z"/><path class="ad" d="M81.95,210.5h-10.84l17.87-50.41h12.58l17.73,50.41h-11.22l-3.79-11h-18.59l-3.75,11ZM94.94,171.62l-6.45,19.16h12.92l-6.48-19.16Z"/><path class="ad" d="M119.64,188.77v-28.69h10.47v29.25c0,4.08.77,7.15,2.3,9.21,1.53,2.06,3.95,3.09,7.25,3.09s5.76-1.03,7.31-3.09c1.56-2.06,2.34-5.13,2.34-9.21v-29.25h10.47v28.69c0,7.2-1.71,12.69-5.13,16.47-3.42,3.79-8.42,5.68-14.99,5.68s-11.52-1.89-14.92-5.68c-3.4-3.78-5.1-9.28-5.1-16.47Z"/><path class="ad" d="M196.83,210.5h-29.87v-50.41h10.47v41.13h19.4v9.28Z"/><path class="ad" d="M191.39,169.4v-9.32h38.77v9.32h-14.19v41.1h-10.47v-41.1h-14.12Z"/><path class="ad" d="M230.69,193.94l10.26.14c.18,2.48,1.18,4.49,2.98,6.01,1.81,1.52,4.19,2.29,7.14,2.29,2.48,0,4.49-.54,6.04-1.62,1.55-1.08,2.32-2.59,2.32-4.54,0-.54-.05-1.02-.15-1.44-.1-.42-.31-.81-.61-1.18-.31-.36-.6-.68-.89-.95-.28-.27-.74-.53-1.36-.79-.63-.26-1.18-.47-1.65-.65-.48-.18-1.19-.37-2.15-.6-.96-.22-1.76-.4-2.42-.54-.66-.14-1.63-.34-2.9-.6-1.84-.35-3.44-.73-4.81-1.14-1.36-.41-2.76-.98-4.18-1.72-1.42-.74-2.58-1.6-3.48-2.6-.9-1-1.63-2.26-2.2-3.8-.57-1.53-.85-3.3-.85-5.29,0-4.5,1.67-8.17,5.01-11,3.34-2.84,7.75-4.25,13.23-4.25,5.75,0,10.34,1.44,13.76,4.31,3.42,2.87,5.17,6.72,5.23,11.55h-10.26c-.25-2.18-1.14-3.93-2.68-5.24-1.53-1.31-3.55-1.97-6.05-1.97-2.32,0-4.18.5-5.58,1.49-1.4,1-2.1,2.44-2.1,4.34,0,.59.09,1.11.27,1.58.18.47.4.88.65,1.23s.67.69,1.25,1c.58.32,1.12.58,1.64.79.51.21,1.26.44,2.25.69.99.25,1.86.45,2.63.6.76.15,1.85.37,3.26.65,1.89.35,3.52.73,4.89,1.12,1.38.4,2.79.96,4.25,1.69,1.45.73,2.63,1.58,3.53,2.55.9.97,1.64,2.22,2.22,3.74.58,1.52.86,3.27.84,5.24-.05,4.73-1.81,8.57-5.3,11.5-3.49,2.93-8.09,4.39-13.79,4.39-6.18,0-11.09-1.54-14.71-4.62-3.63-3.08-5.46-7.2-5.51-12.36Z"/></g><path class="u" d="M46.02,207.77l-16.61-50.41h11.12l11.73,37.3,12-37.3h10.81l-16.54,50.41h-12.52Z"/><path class="ae" d="M78.95,207.77h-10.84l17.87-50.41h12.58l17.73,50.41h-11.22l-3.79-11h-18.59l-3.75,11ZM91.94,168.89l-6.45,19.16h12.92l-6.48-19.16Z"/><path class="s" d="M116.64,186.05v-28.69h10.47v29.25c0,4.08.77,7.15,2.3,9.21,1.53,2.06,3.95,3.09,7.25,3.09s5.76-1.03,7.31-3.09c1.56-2.06,2.34-5.13,2.34-9.21v-29.25h10.47v28.69c0,7.2-1.71,12.69-5.13,16.47-3.42,3.79-8.42,5.68-14.99,5.68s-11.52-1.89-14.92-5.68c-3.4-3.78-5.1-9.28-5.1-16.47Z"/><path class="t" d="M193.83,207.77h-29.87v-50.41h10.47v41.13h19.4v9.28Z"/><path class="ai" d="M188.39,166.68v-9.32h38.77v9.32h-14.19v41.1h-10.47v-41.1h-14.12Z"/><path class="y" d="M227.69,191.21l10.26.14c.18,2.48,1.18,4.49,2.98,6.01,1.81,1.52,4.19,2.29,7.14,2.29,2.48,0,4.49-.54,6.04-1.62,1.55-1.08,2.32-2.59,2.32-4.54,0-.54-.05-1.02-.15-1.44-.1-.42-.31-.81-.61-1.18-.31-.36-.6-.68-.89-.95-.28-.27-.74-.53-1.36-.79-.63-.26-1.18-.47-1.65-.65-.48-.18-1.19-.37-2.15-.6-.96-.22-1.76-.4-2.42-.54-.66-.14-1.63-.34-2.9-.6-1.84-.35-3.44-.73-4.81-1.14-1.36-.41-2.76-.98-4.18-1.72-1.42-.74-2.58-1.6-3.48-2.6-.9-1-1.63-2.26-2.2-3.8-.57-1.53-.85-3.3-.85-5.29,0-4.5,1.67-8.17,5.01-11,3.34-2.84,7.75-4.25,13.23-4.25,5.75,0,10.34,1.44,13.76,4.31,3.42,2.87,5.17,6.72,5.23,11.55h-10.26c-.25-2.18-1.14-3.93-2.68-5.24-1.53-1.31-3.55-1.97-6.05-1.97-2.32,0-4.18.5-5.58,1.49-1.4,1-2.1,2.44-2.1,4.34,0,.59.09,1.11.27,1.58.18.47.4.88.65,1.23s.67.69,1.25,1c.58.32,1.12.58,1.64.79.51.21,1.26.44,2.25.69.99.25,1.86.45,2.63.6.76.15,1.85.37,3.26.65,1.89.35,3.52.73,4.89,1.12,1.38.4,2.79.96,4.25,1.69,1.45.73,2.63,1.58,3.53,2.55.9.97,1.64,2.22,2.22,3.74.58,1.52.86,3.27.84,5.24-.05,4.73-1.81,8.57-5.3,11.5-3.49,2.93-8.09,4.39-13.79,4.39-6.18,0-11.09-1.54-14.71-4.62-3.63-3.08-5.46-7.2-5.51-12.36Z"/></svg>