<?xml version="1.0" encoding="UTF-8"?><svg id="a" xmlns="http://www.w3.org/2000/svg" xmlns:xlink="http://www.w3.org/1999/xlink" viewBox="0 0 287.62 181.33"><defs><style>.m{stroke:url(#j);}.m,.n,.o,.p,.q,.r,.s,.t,.u,.v,.w,.x{fill:#fff;}.m,.n,.o,.p,.r,.s,.t,.u,.v,.w,.x{stroke-miterlimit:10;}.n{stroke:url(#i);}.o{stroke:url(#c);}.y{fill:#241cc9;}.p{stroke:url(#h);}.z{fill:#2315ad;}.aa{letter-spacing:-.03em;}.q{font-family:Aeonik-Bold, Aeonik;font-size:98.86px;font-weight:700;}.r{stroke:url(#b);}.s{stroke:url(#g);}.t{stroke:url(#k);}.ab{letter-spacing:-.01em;}.u{stroke:url(#e);}.v{stroke:url(#f);}.w{stroke:url(#l);}.x{stroke:url(#d);}</style><linearGradient id="b" x1="94.8" y1="114.55" x2="94.8" y2="152.57" gradientUnits="userSpaceOnUse"><stop offset="0" stop-color="#ce1964"/><stop offset="1" stop-color="#363aa2"/></linearGradient><linearGradient id="c" x1="131.17" y1="114.13" x2="131.17" y2="153" xlink:href="#b"/><linearGradient id="d" x1="169.1" x2="169.1" y2="153" xlink:href="#b"/><linearGradient id="e" x1="197.2" y1="101.16" x2="197.2" xlink:href="#b"/><linearGradient id="f" x1="216.89" y1="104.18" x2="216.89" xlink:href="#b"/><linearGradient id="g" x1="247.75" y1="114.06" x2="247.75" y2="153" xlink:href="#b"/><linearGradient id="h" x1="45.38" y1="36.49" x2="45.38" y2="108.11" gradientUnits="userSpaceOnUse"><stop offset="0" stop-color="#ce1964"/><stop offset="1" stop-color="#363aa2"/></linearGradient><linearGradient id="i" x1="99.22" y1="18.1" x2="99.22" y2="88.32" xlink:href="#h"/><linearGradient id="j" x1="150.54" y1="35.91" x2="150.54" y2="88.9" xlink:href="#h"/><linearGradient id="k" x1="194.83" x2="194.83" y2="88.32" xlink:href="#h"/><linearGradient id="l" x1="238.74" y1="35.91" x2="238.74" y2="88.32" xlink:href="#h"/></defs><text class="q" transform="translate(-323.8 90.48) scale(.97 1)"><tspan class="ab" x="0" y="0">y</tspan><tspan class="aa" x="52.78" y="0">E</tspan><tspan class="ab" x="106.53" y="0">arn</tspan></text><path class="y" d="M91.29,154.37l-12.92-37.02h10.54l8.66,26.65,8.53-26.65h10.33l-12.92,37.02h-12.21Z"/><path class="y" d="M151.01,145.8h1.12v8.58h-5.05c-2.41,0-4.13-.53-5.15-1.6-1.02-1.07-1.51-2.55-1.47-4.45-2.64,4.31-6.55,6.47-11.73,6.47-3.98,0-7.2-.95-9.67-2.85s-3.7-4.57-3.7-8.02c0-3.94,1.42-6.97,4.25-9.11s6.92-3.2,12.26-3.2h7.13v-1.79c0-1.69-.57-3.02-1.71-4.01s-2.72-1.48-4.74-1.48c-1.91,0-3.48.41-4.71,1.23s-1.94,1.92-2.15,3.3h-9.48c.34-3.61,2.01-6.5,5.01-8.68s6.87-3.27,11.59-3.27c5.07,0,8.98,1.15,11.73,3.45s4.13,5.64,4.13,10.02v13.11c0,.91.18,1.52.55,1.83.36.3.96.46,1.77.46ZM139.01,139.12v-.74h-7.2c-2.07,0-3.67.42-4.81,1.27s-1.71,2.04-1.71,3.59c0,1.29.48,2.31,1.43,3.08s2.25,1.14,3.89,1.14c2.57,0,4.6-.76,6.09-2.27,1.49-1.51,2.26-3.53,2.3-6.06Z"/><path class="y" d="M179.06,135.88v-18.53h9.85v37.02h-8.73l-.92-4.46c-2.61,3.26-6.13,4.89-10.54,4.89-1.55,0-2.99-.16-4.33-.49-1.34-.33-2.63-.9-3.87-1.71s-2.3-1.84-3.17-3.09c-.88-1.25-1.57-2.87-2.1-4.83-.52-1.97-.78-4.23-.78-6.79v-20.53h9.86v19.16c0,3.35.56,5.84,1.67,7.45s2.88,2.43,5.29,2.43,4.37-.9,5.73-2.71c1.36-1.8,2.05-4.41,2.05-7.8Z"/><path class="y" d="M194.86,154.37v-50.41h9.86v50.41h-9.86Z"/><path class="y" d="M213.29,143.79v-17.86h-5.93v-8.58h5.93v-10.37h9.86v10.37h8.25v8.58h-8.25v16.21c0,1.31.27,2.25.8,2.81s1.45.84,2.75.84h4.91v8.58h-8.05c-6.84,0-10.26-3.53-10.26-10.58Z"/><path class="y" d="M233.6,142.07h9.38c.18,1.66.96,2.99,2.32,3.97s3.22,1.48,5.56,1.48c2.09,0,3.72-.33,4.89-1,1.17-.67,1.76-1.65,1.76-2.94s-.57-2.23-1.71-2.74c-.82-.38-2.77-.77-5.87-1.2h-.03l-.03-.04h-.21l-.03-.04h-.21l-.03-.04h-.14c-1.84-.23-3.44-.49-4.79-.77s-2.7-.68-4.04-1.2-2.43-1.14-3.26-1.88-1.5-1.68-2.01-2.81-.77-2.44-.77-3.92c0-3.66,1.42-6.6,4.25-8.82s6.55-3.32,11.17-3.27c4.89,0,8.85,1.06,11.88,3.18s4.67,5.04,4.89,8.77h-9.45c-.14-1.48-.83-2.64-2.08-3.48-1.25-.84-2.88-1.27-4.88-1.27s-3.51.33-4.65,1c-1.15.67-1.72,1.6-1.72,2.79,0,.45.07.84.22,1.18s.4.63.75.88.72.45,1.09.62.92.31,1.62.44c.7.13,1.34.23,1.91.32s1.35.18,2.35.3c.14.02.24.04.31.04,1.84.19,3.43.42,4.77.69,1.34.27,2.69.67,4.06,1.21s2.48,1.2,3.34,1.97,1.56,1.78,2.1,3.01.8,2.65.8,4.27c0,3.66-1.51,6.57-4.52,8.75-3.01,2.18-6.95,3.27-11.82,3.27s-9.09-1.14-12.21-3.41c-3.11-2.27-4.77-5.38-4.98-9.32Z"/><path class="r" d="M88.7,152.07l-12.92-37.02h10.54l8.66,26.65,8.53-26.65h10.33l-12.92,37.02h-12.21Z"/><path class="o" d="M148.42,143.5h1.12v8.58h-5.05c-2.41,0-4.13-.53-5.15-1.6-1.02-1.07-1.51-2.55-1.47-4.45-2.64,4.31-6.55,6.47-11.73,6.47-3.98,0-7.2-.95-9.67-2.85s-3.7-4.57-3.7-8.02c0-3.94,1.42-6.97,4.25-9.11s6.92-3.2,12.26-3.2h7.13v-1.79c0-1.69-.57-3.02-1.71-4.01s-2.72-1.48-4.74-1.48c-1.91,0-3.48.41-4.71,1.23s-1.94,1.92-2.15,3.3h-9.48c.34-3.61,2.01-6.5,5.01-8.68s6.87-3.27,11.59-3.27c5.07,0,8.98,1.15,11.73,3.45s4.13,5.64,4.13,10.02v13.11c0,.91.18,1.52.55,1.83.36.3.96.46,1.77.46ZM136.42,136.82v-.74h-7.2c-2.07,0-3.67.42-4.81,1.27s-1.71,2.04-1.71,3.59c0,1.29.48,2.31,1.43,3.08s2.25,1.14,3.89,1.14c2.57,0,4.6-.76,6.09-2.27,1.49-1.51,2.26-3.53,2.3-6.06Z"/><path class="x" d="M176.47,133.58v-18.53h9.85v37.02h-8.73l-.92-4.46c-2.61,3.26-6.13,4.89-10.54,4.89-1.55,0-2.99-.16-4.33-.49-1.34-.33-2.63-.9-3.87-1.71s-2.3-1.84-3.17-3.09c-.88-1.25-1.57-2.87-2.1-4.83-.52-1.97-.78-4.23-.78-6.79v-20.53h9.86v19.16c0,3.35.56,5.84,1.67,7.45s2.88,2.43,5.29,2.43,4.37-.9,5.73-2.71c1.36-1.8,2.05-4.41,2.05-7.8Z"/><path class="u" d="M192.27,152.07v-50.41h9.86v50.41h-9.86Z"/><path class="v" d="M210.7,141.49v-17.86h-5.93v-8.58h5.93v-10.37h9.86v10.37h8.25v8.58h-8.25v16.21c0,1.31.27,2.25.8,2.81s1.45.84,2.75.84h4.91v8.58h-8.05c-6.84,0-10.26-3.53-10.26-10.58Z"/><path class="s" d="M231.01,139.77h9.38c.18,1.66.96,2.99,2.32,3.97s3.22,1.48,5.56,1.48c2.09,0,3.72-.33,4.89-1,1.17-.67,1.76-1.65,1.76-2.94s-.57-2.23-1.71-2.74c-.82-.38-2.77-.77-5.87-1.2h-.03l-.03-.04h-.21l-.03-.04h-.21l-.03-.04h-.14c-1.84-.23-3.44-.49-4.79-.77s-2.7-.68-4.04-1.2-2.43-1.14-3.26-1.88-1.5-1.68-2.01-2.81-.77-2.44-.77-3.92c0-3.66,1.42-6.6,4.25-8.82s6.55-3.32,11.17-3.27c4.89,0,8.85,1.06,11.88,3.18s4.67,5.04,4.89,8.77h-9.45c-.14-1.48-.83-2.64-2.08-3.48-1.25-.84-2.88-1.27-4.88-1.27s-3.51.33-4.65,1c-1.15.67-1.72,1.6-1.72,2.79,0,.45.07.84.22,1.18s.4.63.75.88.72.45,1.09.62.92.31,1.62.44c.7.13,1.34.23,1.91.32s1.35.18,2.35.3c.14.02.24.04.31.04,1.84.19,3.43.42,4.77.69,1.34.27,2.69.67,4.06,1.21s2.48,1.2,3.34,1.97,1.56,1.78,2.1,3.01.8,2.65.8,4.27c0,3.66-1.51,6.57-4.52,8.75-3.01,2.18-6.95,3.27-11.82,3.27s-9.09-1.14-12.21-3.41c-3.11-2.27-4.77-5.38-4.98-9.32Z"/><path class="z" d="M40.33,90.86l-18.96-51.12h14.37l11.99,36.2,11.71-36.2h14.47l-21.87,58.07c-.87,2.35-1.65,4.21-2.32,5.58-.67,1.37-1.51,2.63-2.53,3.79-1.01,1.16-2.19,1.98-3.51,2.46-1.33.48-2.94.72-4.85.72h-13.16v-11.78h7.49c1.72,0,2.96-.29,3.75-.87.78-.58,1.51-1.74,2.2-3.48l1.22-3.38Z"/><path class="z" d="M78.41,90.57V21.35h45.04v12.79h-30.67v15.5h24.96v12.16h-24.96v16.03h31.75v12.74h-46.12Z"/><path class="z" d="M176.48,78.79h1.54v11.78h-6.93c-3.31,0-5.67-.73-7.07-2.2-1.41-1.46-2.08-3.5-2.01-6.11-3.62,5.92-8.99,8.88-16.11,8.88-5.46,0-9.89-1.3-13.27-3.91-3.39-2.61-5.08-6.28-5.08-11.01,0-5.41,1.94-9.57,5.83-12.5,3.89-2.93,9.5-4.39,16.83-4.39h9.79v-2.46c0-2.32-.78-4.15-2.34-5.5-1.56-1.35-3.73-2.03-6.51-2.03-2.62,0-4.78.56-6.46,1.69-1.69,1.13-2.67,2.64-2.95,4.54h-13.02c.47-4.96,2.76-8.93,6.88-11.92,4.12-2.99,9.43-4.49,15.92-4.49,6.96,0,12.33,1.58,16.11,4.73,3.78,3.15,5.67,7.74,5.67,13.76v18c0,1.25.25,2.09.75,2.51.5.42,1.31.63,2.44.63ZM160,69.62v-1.01h-9.88c-2.84,0-5.04.58-6.6,1.74-1.56,1.16-2.34,2.8-2.34,4.92,0,1.77.66,3.18,1.97,4.22,1.31,1.05,3.09,1.57,5.34,1.57,3.53,0,6.31-1.04,8.36-3.11,2.04-2.08,3.1-4.85,3.16-8.33Z"/><path class="z" d="M209.79,39.74h2.29v12.65h-5.34c-3.84,0-6.66,1.18-8.45,3.55-1.8,2.37-2.69,5.61-2.69,9.73v24.91h-13.53v-50.83h12.27l1.26,7.63c1.47-2.48,3.29-4.37,5.48-5.67,2.18-1.3,5.09-1.96,8.71-1.96Z"/><path class="z" d="M245.3,39.16c2.22,0,4.27.24,6.16.72,1.89.48,3.68,1.3,5.36,2.46,1.69,1.16,3.13,2.61,4.33,4.34,1.2,1.74,2.15,3.94,2.83,6.61.69,2.67,1.03,5.7,1.03,9.08v28.19h-13.48v-26.79c0-8.75-3.32-13.13-9.97-13.13-3.5,0-6.21,1.21-8.15,3.64-1.94,2.43-2.9,5.85-2.9,10.26v26.02h-13.53v-50.83h11.8l1.26,6.32c3.71-4.6,8.8-6.9,15.26-6.9Z"/><path class="p" d="M38.07,88.11l-18.96-51.12h14.37l11.99,36.2,11.71-36.2h14.47l-21.87,58.07c-.87,2.35-1.65,4.21-2.32,5.58-.67,1.37-1.51,2.63-2.53,3.79-1.01,1.16-2.19,1.98-3.51,2.46-1.33.48-2.94.72-4.85.72h-13.16v-11.78h7.49c1.72,0,2.96-.29,3.75-.87.78-.58,1.51-1.74,2.2-3.48l1.22-3.38Z"/><path class="n" d="M76.16,87.82V18.6h45.04v12.79h-30.67v15.5h24.96v12.16h-24.96v16.03h31.75v12.74h-46.12Z"/><path class="m" d="M174.23,76.04h1.54v11.78h-6.93c-3.31,0-5.67-.73-7.07-2.2-1.41-1.46-2.08-3.5-2.01-6.11-3.62,5.92-8.99,8.88-16.11,8.88-5.46,0-9.89-1.3-13.27-3.91-3.39-2.61-5.08-6.28-5.08-11.01,0-5.41,1.94-9.57,5.83-12.5,3.89-2.93,9.5-4.39,16.83-4.39h9.79v-2.46c0-2.32-.78-4.15-2.34-5.5-1.56-1.35-3.73-2.03-6.51-2.03-2.62,0-4.78.56-6.46,1.69-1.69,1.13-2.67,2.64-2.95,4.54h-13.02c.47-4.96,2.76-8.93,6.88-11.92,4.12-2.99,9.43-4.49,15.92-4.49,6.96,0,12.33,1.58,16.11,4.73,3.78,3.15,5.67,7.74,5.67,13.76v18c0,1.25.25,2.09.75,2.51.5.42,1.31.63,2.44.63ZM157.75,66.87v-1.01h-9.88c-2.84,0-5.04.58-6.6,1.74-1.56,1.16-2.34,2.8-2.34,4.92,0,1.77.66,3.18,1.97,4.22,1.31,1.05,3.09,1.57,5.34,1.57,3.53,0,6.31-1.04,8.36-3.11,2.04-2.08,3.1-4.85,3.16-8.33Z"/><path class="t" d="M207.54,36.99h2.29v12.65h-5.34c-3.84,0-6.66,1.18-8.45,3.55-1.8,2.37-2.69,5.61-2.69,9.73v24.91h-13.53v-50.83h12.27l1.26,7.63c1.47-2.48,3.29-4.37,5.48-5.67,2.18-1.3,5.09-1.96,8.71-1.96Z"/><path class="w" d="M243.05,36.41c2.22,0,4.27.24,6.16.72,1.89.48,3.68,1.3,5.36,2.46,1.69,1.16,3.13,2.61,4.33,4.34,1.2,1.74,2.15,3.94,2.83,6.61.69,2.67,1.03,5.7,1.03,9.08v28.19h-13.48v-26.79c0-8.75-3.32-13.13-9.97-13.13-3.5,0-6.21,1.21-8.15,3.64-1.94,2.43-2.9,5.85-2.9,10.26v26.02h-13.53v-50.83h11.8l1.26,6.32c3.71-4.6,8.8-6.9,15.26-6.9Z"/></svg>