<svg width="400" height="400" viewBox="0 0 400 400" fill="none" xmlns="http://www.w3.org/2000/svg">
<path d="M200 400C310.457 400 400 310.457 400 200C400 89.5431 310.457 0 200 0C89.5431 0 0 89.5431 0 200C0 310.457 89.5431 400 200 400Z" fill="#FB7F33"/>
<path d="M163.659 261.184C164.269 267.497 167.823 272.656 174.324 276.659C180.825 280.509 189.662 282.433 200.834 282.433C209.772 282.433 216.984 281.125 222.469 278.506C227.954 275.889 230.696 272.039 230.696 266.958C230.696 263.724 229.173 261.184 226.126 259.336C223.079 257.489 218.304 255.948 211.804 254.717C205.506 253.331 195.044 251.484 180.418 249.173C166.198 246.864 154.416 244.17 145.071 241.089C135.727 237.856 128.211 233.082 122.522 226.77C116.835 220.303 113.99 211.757 113.99 201.132C113.99 191.586 117.546 182.963 124.655 175.264C131.969 167.565 141.923 161.56 154.518 157.248C167.316 152.783 181.536 150.55 197.177 150.55C213.226 150.55 227.649 152.783 240.447 157.248C253.448 161.713 263.606 167.95 270.918 175.957C278.435 183.81 282.193 192.586 282.193 202.287H227.649C227.04 196.59 224.094 192.047 218.812 188.66C213.531 185.118 206.319 183.348 197.177 183.348C189.255 183.348 182.754 184.579 177.676 187.043C172.8 189.507 170.363 193.125 170.363 197.899C170.363 201.132 171.784 203.673 174.629 205.521C177.676 207.214 182.348 208.754 188.646 210.14C194.943 211.372 205.202 213.066 219.422 215.221C233.845 217.377 245.83 219.995 255.378 223.074C264.926 226.153 272.544 230.773 278.232 236.932C284.123 243.092 287.069 251.33 287.069 261.646C287.069 271.654 283.31 280.74 275.794 288.901C268.278 297.061 257.816 303.452 244.408 308.071C231.204 312.69 216.375 315 199.92 315C182.856 315 167.417 312.613 153.604 307.84C139.79 303.066 128.922 296.523 120.999 288.208C113.076 279.892 109.115 270.576 109.115 260.26L163.659 261.184Z" fill="white"/>
<path fill-rule="evenodd" clip-rule="evenodd" d="M108.906 98.0639L96 111.128L127.492 143L158.983 174.872V199.999C158.983 199.999 163.147 203.632 172.61 206.356C182.072 209.08 189.376 210.236 189.376 210.236L195.686 174.872L227.1 143.078L258.516 111.283L245.529 98.1507L232.543 85.0189L205.109 112.71C190.02 127.941 177.524 140.402 177.341 140.402C177.158 140.402 164.645 127.936 149.535 112.701C134.425 97.4655 122.005 85 121.936 85C121.868 85 116.004 90.8789 108.906 98.0639Z" fill="#FB7F33"/>
<path fill-rule="evenodd" clip-rule="evenodd" d="M154.39 98.0639L141.485 111.128L172.977 143L204.468 174.872V208.998H241.17V174.872L272.585 143.078L304 111.283L291.014 98.1507L278.028 85.0189L250.593 112.71C235.504 127.941 223.009 140.402 222.826 140.402C222.643 140.402 210.13 127.936 195.02 112.701C179.91 97.4655 167.491 85 167.421 85C167.352 85 161.488 90.8789 154.39 98.0639Z" fill="#FB7F33"/>
<path fill-rule="evenodd" clip-rule="evenodd" d="M132.479 98.0639L119.574 111.128L151.065 143L182.556 174.872V195.789L219.259 201.981V174.872L250.674 143.078L282.089 111.283L269.103 98.1507L256.117 85.0189L228.682 112.71C213.593 127.941 201.098 140.402 200.914 140.402C200.731 140.402 188.219 127.936 173.108 112.701C157.998 97.4655 145.578 85 145.51 85C145.441 85 139.577 90.8789 132.479 98.0639Z" fill="white"/>
</svg>
