<?xml version="1.0" encoding="UTF-8"?><svg id="a" xmlns="http://www.w3.org/2000/svg" viewBox="0 0 512 512"><defs><style>.b{fill:#fff;fill-rule:evenodd;}.c{fill:#f68b1f;}</style></defs><circle class="c" cx="256" cy="256" r="256"/><path class="b" d="M187.07,122.12l-19.43,13.95,33.27,46.32,33.27,46.32-12.21,74.46,46.22,7.58,12.21-74.46,46.32-33.27,46.32-33.27-13.95-19.43-13.95-19.43-40.35,28.98c-22.41,16.1-40.35,28.98-40.35,28.98l-28.98-40.35c-16.1-22.41-28.98-40.35-28.98-40.35,0,0-8.97,6.44-19.43,13.95ZM153.31,215.45c-7.03,10.71-11.07,19.28-15.53,30.41-10.61,32.54-8.38,67.18,9.02,97.72,3.22,4.48,10.52,16.23,15.03,20.92,16.73,18.56,37.08,31.13,61.26,36.41,14.12,2.32,29.53,4.84,44.7.74,43.4-7.38,80.1-38.28,93.89-82.16,5.3-16.27,5.68-34.66,4.57-51.98-1.51-6.84-3.68-17.74-4.33-21.8h0c.21-1.28-20.71,13.74-20.71,13.74-16.44,11.81-20.92,15.03-19.64,15.24.44,5.35.88,10.69-.17,17.11-2.11,12.84-4.86,21.61-11.68,31.04-12.35,19.07-32.64,30.24-56.59,31.59-3.85-.63-5.14-.84-14.12-2.32l-12.84-2.11c-20.98-8.71-36.85-24.5-42.47-46.51-2.38-9.62-3.47-19.03-1.79-29.3,1.26-7.7,2.11-12.84,4.44-19.05l.63-3.85-13.74-20.71c-7.3-11.74-15.03-20.92-15.03-20.92,0,0-.21,1.28-3.2,3.43l-1.7,2.36Z"/></svg>