<?xml version="1.0" encoding="UTF-8"?><svg id="a" xmlns="http://www.w3.org/2000/svg" viewBox="0 0 512 512"><defs><style>.b{fill:#fff;fill-rule:evenodd;}.c{fill:#f68b1f;}</style></defs><circle class="c" cx="256" cy="256" r="256"/><path class="b" d="M166.32,134.39l-16.92,16.9,40.31,40.34,40.31,40.34-.03,75.45,46.84.02.03-75.45,40.34-40.31,40.34-40.31-16.9-16.92-16.9-16.92-35.14,35.11c-19.52,19.51-35.14,35.11-35.14,35.11l-35.11-35.14c-19.51-19.52-35.11-35.14-35.11-35.14,0,0-7.81,7.8-16.92,16.9l.02.02ZM148.06,231.94c-5.21,11.7-7.81,20.81-10.42,32.52-5.22,33.83,2.57,67.65,24.67,94.98,3.9,3.9,13,14.32,18.21,18.22,19.51,15.62,41.62,24.74,66.33,26.05,14.31.01,29.92.01,44.23-6.48,41.64-14.29,72.87-50.71,79.4-96.24,2.6-16.91.01-35.12-3.88-52.04-2.59-6.51-6.49-16.91-7.79-20.82h0c0-1.3-18.22,16.9-18.22,16.9-14.32,14.31-18.22,18.21-16.92,18.21,1.3,5.21,2.59,10.41,2.59,16.91,0,13.01-1.31,22.11-6.52,32.52-9.11,20.81-27.33,35.11-50.75,40.31-3.9,0-5.21,0-14.31-.01h-13.01c-22.11-5.22-40.32-18.24-49.42-39.06-3.9-9.11-6.5-18.22-6.5-28.63,0-7.8,0-13.01,1.31-19.52v-3.9s-16.9-18.22-16.9-18.22c-9.1-10.41-18.21-18.22-18.21-18.22,0,0,0,1.3-2.6,3.9l-1.3,2.6h0Z"/></svg>