<svg width="32" height="32" viewBox="0 0 32 32" fill="none" xmlns="http://www.w3.org/2000/svg">
<path fill-rule="evenodd" clip-rule="evenodd" d="M16 32C24.8366 32 32 24.8366 32 16C32 7.16344 24.8366 0 16 0C7.16344 0 0 7.16344 0 16C0 24.8366 7.16344 32 16 32ZM16 30C23.732 30 30 23.732 30 16C30 8.26801 23.732 2 16 2C8.26801 2 2 8.26801 2 16C2 23.732 8.26801 30 16 30Z" fill="url(#paint0_linear_860_290530)"/>
<path fill-rule="evenodd" clip-rule="evenodd" d="M16 30C23.732 30 30 23.732 30 16C30 8.26801 23.732 2 16 2C8.26801 2 2 8.26801 2 16C2 23.732 8.26801 30 16 30ZM16 28C22.6274 28 28 22.6274 28 16C28 9.37258 22.6274 4 16 4C9.37258 4 4 9.37258 4 16C4 22.6274 9.37258 28 16 28Z" fill="#212121"/>
<path fill-rule="evenodd" clip-rule="evenodd" d="M16 28C22.6274 28 28 22.6274 28 16C28 9.37258 22.6274 4 16 4C9.37258 4 4 9.37258 4 16C4 22.6274 9.37258 28 16 28ZM16 26C21.5228 26 26 21.5228 26 16C26 10.4772 21.5228 6 16 6C10.4772 6 6 10.4772 6 16C6 21.5228 10.4772 26 16 26Z" fill="#161616"/>
<path fill-rule="evenodd" clip-rule="evenodd" d="M16 26C21.5228 26 26 21.5228 26 16C26 10.4772 21.5228 6 16 6C10.4772 6 6 10.4772 6 16C6 21.5228 10.4772 26 16 26ZM16 24C20.4183 24 24 20.4183 24 16C24 11.5817 20.4183 8 16 8C11.5817 8 8 11.5817 8 16C8 20.4183 11.5817 24 16 24Z" fill="#101010"/>
<path d="M24 16C24 20.4183 20.4183 24 16 24C11.5817 24 8 20.4183 8 16C8 11.5817 11.5817 8 16 8C20.4183 8 24 11.5817 24 16Z" fill="black"/>
<path fill-rule="evenodd" clip-rule="evenodd" d="M12.2927 10.6996L11.5933 11.3993L13.2999 13.1062L15.0065 14.8131V16.402V17.9909H16.001H16.9955V16.402V14.8131L18.698 13.1104L20.4005 11.4076L19.6967 10.7043L18.9929 10.001L17.5062 11.484C16.6885 12.2997 16.0113 12.9671 16.0014 12.9671C15.9915 12.9671 15.3134 12.2995 14.4945 11.4835C13.6756 10.6676 13.0026 10 12.9988 10C12.9951 10 12.6773 10.3148 12.2927 10.6996ZM11.5042 14.8004C11.2816 15.2705 11.1527 15.6755 11.0697 16.1656C10.8323 17.5669 11.2075 19.01 12.1008 20.1319C12.2482 20.317 12.6819 20.7506 12.8658 20.8967C13.6933 21.554 14.6354 21.9182 15.6921 21.9892C16.3242 22.0317 16.9562 21.9488 17.577 21.742C19.3715 21.1443 20.667 19.6015 20.9472 17.7287C21.055 17.008 20.9968 16.2371 20.7809 15.5262C20.6951 15.2435 20.5212 14.82 20.4303 14.6723L20.3955 14.6158L19.6389 15.3719C19.0285 15.9818 18.8841 16.1346 18.8918 16.1617C18.9542 16.3804 18.9874 16.6077 18.9962 16.8782C19.0135 17.4026 18.9305 17.8264 18.7241 18.269C18.3228 19.1296 17.5398 19.7437 16.5825 19.9489C16.4163 19.9845 16.3552 19.9885 15.9926 19.988C15.6367 19.9875 15.5668 19.9828 15.411 19.9492C14.4619 19.744 13.7155 19.1634 13.2944 18.3028C13.104 17.9138 13.0179 17.5538 13.0049 17.0932C12.9955 16.7602 13.0139 16.5588 13.0776 16.2967L13.1185 16.1281L12.3644 15.3737C11.9495 14.9587 11.6056 14.6192 11.6001 14.6192C11.5945 14.6192 11.5514 14.7007 11.5042 14.8004Z" fill="white"/>
<defs>
<linearGradient id="paint0_linear_860_290530" x1="22.5" y1="1" x2="9" y2="32" gradientUnits="userSpaceOnUse">
<stop stop-color="#84D9DD"/>
<stop offset="1" stop-color="#22A1A6"/>
</linearGradient>
</defs>
</svg>
