<svg width="309" height="89" viewBox="0 0 309 89" fill="none" xmlns="http://www.w3.org/2000/svg">
<g clip-path="url(#clip0_6_163)">
<path d="M291.642 0C288.551 0 285.958 0.497853 283.864 1.52675C281.771 2.55564 279.976 3.98282 278.48 5.77509L277.417 0.464663H267.213V43.0144H278.912V21.2417C278.912 17.5576 279.743 14.67 281.405 12.6454C283.067 10.6209 285.427 9.59196 288.451 9.59196C294.201 9.59196 297.059 13.2761 297.059 20.6111V43.0476H308.759V19.9473C308.759 12.8446 307.163 7.73331 303.939 4.64662C300.715 1.55994 296.594 0 291.642 0ZM260.665 0.497852C257.508 0.497852 255.015 1.0289 253.121 2.12417C251.226 3.18626 249.664 4.77938 248.401 6.87036L247.338 0.497852H236.735V43.0476H248.434V22.2042C248.434 18.7856 249.199 16.064 250.761 14.1058C252.323 12.1144 254.749 11.1187 258.04 11.1187H262.693V0.497852H260.665ZM209.88 35.1152C207.952 35.1152 206.423 34.6837 205.293 33.7876C204.163 32.8914 203.598 31.7298 203.598 30.2362C203.598 28.4772 204.263 27.1164 205.626 26.1538C206.988 25.1913 208.883 24.6935 211.309 24.6935H219.851V25.5232C219.784 28.444 218.887 30.7673 217.126 32.5264C215.331 34.2522 212.938 35.1152 209.88 35.1152ZM212.472 0C206.722 0 202.103 1.19485 198.646 3.58454C195.156 5.97423 193.228 9.35963 192.83 13.7075H204.097C204.363 12.1144 205.227 10.8532 206.623 9.89067C208.019 8.96134 209.847 8.49668 212.04 8.49668C214.4 8.49668 216.295 9.06091 217.724 10.1562C219.12 11.2515 219.851 12.7782 219.851 14.7032V16.8938H211.475C205.061 16.8938 200.175 18.1218 196.851 20.5447C193.494 22.9676 191.833 26.4526 191.833 30.9664C191.833 34.9492 193.228 38.0359 196.02 40.2265C198.812 42.4502 202.568 43.5455 207.254 43.5455C210.113 43.5455 212.605 43.0476 214.666 42.0519C216.727 41.0562 218.588 39.5959 220.183 37.6708L221.081 43.0476H231.351V15.4002C231.351 10.3885 229.722 6.57165 226.432 3.94963C223.141 1.32761 218.488 0 212.472 0ZM157.1 16.8274C157.433 14.3381 158.463 12.3799 160.225 10.9196C161.953 9.4592 164.113 8.72901 166.639 8.72901C169.298 8.72901 171.492 9.42601 173.22 10.8532C174.948 12.2472 176.012 14.2718 176.411 16.8606H157.1V16.8274ZM144.67 21.8723C144.67 26.2202 145.601 30.0371 147.462 33.3229C149.323 36.6087 151.949 39.1312 155.405 40.8903C158.862 42.6494 162.95 43.5455 167.703 43.5455C171.359 43.5455 174.583 42.8817 177.408 41.5873C180.233 40.2929 182.493 38.5006 184.188 36.2437C185.916 33.9867 186.98 31.4311 187.412 28.6431H175.879C175.38 30.6345 174.35 32.1281 172.755 33.157C171.193 34.1859 169.198 34.6837 166.839 34.6837C163.847 34.6837 161.521 33.7876 159.793 32.0285C158.064 30.2694 157.1 27.8465 156.801 24.7599V24.428H187.711C187.944 23.2663 188.044 21.9387 188.044 20.4451C187.977 16.2964 187.046 12.7118 185.185 9.65834C183.324 6.60484 180.765 4.21515 177.474 2.55564C174.184 0.862944 170.395 0.0331909 166.074 0.0331909C161.82 0.0331909 158.064 0.929325 154.84 2.72159C151.616 4.51386 149.09 7.0695 147.296 10.3221C145.567 13.608 144.67 17.458 144.67 21.8723ZM100 0.497852L116.419 43.28L115.355 46.1011C114.757 47.5283 114.126 48.4908 113.461 48.9887C112.796 49.4865 111.732 49.7189 110.237 49.7189H103.756V59.5763H115.123C117.283 59.5763 119.045 59.2112 120.374 58.4479C121.737 57.7177 122.833 56.5892 123.731 55.1289C124.628 53.6685 125.559 51.6439 126.556 49.055L145.468 0.464663H132.937L122.833 30.9996L112.464 0.464663H100V0.497852Z" fill="white"/>
<path d="M67.1045 32.6923L56.3359 43.4459C56.9342 45.4041 57.2333 47.4951 57.2333 49.586C57.2333 55.2616 55.0065 60.6052 51.0181 64.6212C46.9965 68.6372 41.6454 70.8278 35.9619 70.8278C30.2785 70.8278 24.9274 68.604 20.9058 64.6212C16.8842 60.6052 14.6905 55.2616 14.6905 49.586C14.6905 47.4619 14.9897 45.4041 15.5879 43.4459L4.78606 32.6923C2.06067 37.704 0.49855 43.4791 0.49855 49.6192C0.49855 69.1682 16.3856 85.0331 35.9619 85.0331C55.5382 85.0331 71.4253 69.1682 71.4253 49.6192C71.4253 43.4791 69.8632 37.704 67.1045 32.6923Z" fill="white"/>
<path d="M28.8493 56.6556H43.0413V34.1527L67.2043 10.0234L57.1668 0L35.9619 21.1753L14.757 0L4.71959 10.0234L28.8493 34.1195V56.6556Z" fill="white"/>
</g>
<path d="M150.894 64H146.306V51.3965H150.894C152.183 51.3965 153.322 51.6631 154.312 52.1963C155.309 52.7236 156.076 53.4648 156.615 54.4199C157.16 55.3691 157.433 56.4561 157.433 57.6807C157.433 58.8994 157.16 59.9893 156.615 60.9502C156.076 61.9053 155.309 62.6523 154.312 63.1914C153.322 63.7305 152.183 64 150.894 64ZM149.004 53.6465V61.75H150.894C152.077 61.75 153 61.3779 153.662 60.6338C154.324 59.8838 154.655 58.8994 154.655 57.6807C154.655 56.4561 154.324 55.4775 153.662 54.7451C153 54.0127 152.077 53.6465 150.894 53.6465H149.004ZM163.444 64.1055C161.915 64.1055 160.708 63.6807 159.823 62.8311C158.944 61.9814 158.505 60.8359 158.505 59.3945C158.505 57.9531 158.938 56.8018 159.806 55.9404C160.673 55.0732 161.824 54.6396 163.26 54.6396C164.648 54.6396 165.771 55.0439 166.626 55.8525C167.487 56.6553 167.927 57.7334 167.944 59.0869C167.944 59.3682 167.918 59.6553 167.865 59.9482H161.15V60.0801C161.174 60.7363 161.382 61.252 161.774 61.627C162.167 61.9961 162.686 62.1807 163.33 62.1807C163.852 62.1807 164.279 62.0693 164.613 61.8467C164.953 61.624 165.179 61.2988 165.29 60.8711H167.795C167.643 61.8086 167.177 62.582 166.397 63.1914C165.624 63.8008 164.64 64.1055 163.444 64.1055ZM161.212 58.2959H165.387C165.299 57.7334 165.07 57.2998 164.701 56.9951C164.332 56.6846 163.857 56.5293 163.277 56.5293C162.721 56.5293 162.255 56.6875 161.88 57.0039C161.505 57.3203 161.282 57.751 161.212 58.2959ZM169.526 64V51.3965H177.841V53.7256H172.225V56.6699H176.83V58.8848H172.225V64H169.526ZM181.444 53.3564C181.163 53.626 180.814 53.7607 180.398 53.7607C179.982 53.7607 179.631 53.626 179.344 53.3564C179.062 53.0811 178.922 52.7412 178.922 52.3369C178.922 51.9268 179.062 51.584 179.344 51.3086C179.631 51.0332 179.982 50.8955 180.398 50.8955C180.814 50.8955 181.163 51.0332 181.444 51.3086C181.731 51.584 181.875 51.9268 181.875 52.3369C181.875 52.7412 181.731 53.0811 181.444 53.3564ZM179.115 64V54.7451H181.673V64H179.115ZM185.575 56.2744H183.958L183.422 52.873C183.357 52.4219 183.442 52.0498 183.677 51.7568C183.917 51.458 184.28 51.3086 184.767 51.3086C185.259 51.3086 185.622 51.458 185.856 51.7568C186.091 52.0557 186.173 52.4277 186.103 52.873L185.575 56.2744ZM186.858 60.9238H189.275C189.322 61.3398 189.521 61.6709 189.873 61.917C190.225 62.1631 190.702 62.2861 191.306 62.2861C191.845 62.2861 192.264 62.2041 192.562 62.04C192.867 61.8701 193.02 61.624 193.02 61.3018C193.02 60.9736 192.873 60.7451 192.58 60.6162C192.369 60.5225 191.865 60.4229 191.068 60.3174H191.06L191.051 60.3086H191.042H191.033H191.024H191.016H191.007H190.998L190.989 60.2998H190.98H190.972H190.963H190.954H190.945H190.937L190.928 60.291H190.919H190.91H190.893C190.418 60.2324 190.005 60.168 189.653 60.0977C189.308 60.0273 188.962 59.9277 188.616 59.7988C188.271 59.6699 187.989 59.5146 187.772 59.333C187.562 59.1455 187.389 58.9111 187.254 58.6299C187.125 58.3428 187.061 58.0146 187.061 57.6455C187.061 56.7314 187.424 55.9961 188.15 55.4395C188.883 54.8828 189.844 54.6104 191.033 54.6221C192.293 54.6221 193.312 54.8887 194.092 55.4219C194.877 55.9492 195.299 56.6787 195.357 57.6104H192.923C192.888 57.2412 192.709 56.9512 192.387 56.7402C192.064 56.5293 191.646 56.4238 191.13 56.4238C190.626 56.4238 190.225 56.5088 189.926 56.6787C189.633 56.8428 189.486 57.0742 189.486 57.373C189.486 57.4844 189.504 57.584 189.539 57.6719C189.58 57.7539 189.645 57.8271 189.732 57.8916C189.826 57.9502 189.92 58 190.014 58.041C190.113 58.082 190.254 58.1201 190.436 58.1553C190.617 58.1846 190.781 58.2109 190.928 58.2344C191.074 58.252 191.276 58.2754 191.534 58.3047C191.569 58.3105 191.596 58.3135 191.613 58.3135C192.088 58.3604 192.498 58.4189 192.844 58.4893C193.189 58.5537 193.538 58.6533 193.89 58.7881C194.241 58.9229 194.528 59.0869 194.751 59.2803C194.974 59.4736 195.152 59.7256 195.287 60.0361C195.428 60.3408 195.498 60.6953 195.498 61.0996C195.498 62.0137 195.108 62.7432 194.329 63.2881C193.556 63.833 192.542 64.1055 191.288 64.1055C189.993 64.1055 188.944 63.8213 188.142 63.2529C187.339 62.6846 186.911 61.9082 186.858 60.9238ZM212.373 54.6396C212.865 54.6396 213.311 54.7129 213.709 54.8594C214.113 55.0059 214.474 55.2344 214.79 55.5449C215.106 55.8555 215.353 56.2773 215.528 56.8105C215.704 57.3438 215.792 57.9707 215.792 58.6914V64H213.252V58.832C213.252 57.4316 212.719 56.7314 211.652 56.7314C211.096 56.7314 210.65 56.9277 210.316 57.3203C209.982 57.7129 209.815 58.2549 209.815 58.9463V64H207.275V58.832C207.275 57.4316 206.736 56.7314 205.658 56.7314C205.107 56.7314 204.665 56.9307 204.331 57.3291C204.003 57.7275 203.839 58.2725 203.839 58.9639V64H201.299V54.7451H203.514L203.751 55.8965C204.384 55.0762 205.289 54.6572 206.467 54.6396C207.791 54.6162 208.717 55.1377 209.244 56.2041C209.93 55.1611 210.973 54.6396 212.373 54.6396ZM225.407 62.8135C224.522 63.6748 223.342 64.1055 221.865 64.1055C220.389 64.1055 219.205 63.6748 218.314 62.8135C217.43 61.9463 216.987 60.8008 216.987 59.377C216.987 57.9531 217.43 56.8076 218.314 55.9404C219.205 55.0732 220.389 54.6396 221.865 54.6396C223.342 54.6396 224.522 55.0732 225.407 55.9404C226.298 56.8076 226.743 57.9531 226.743 59.377C226.743 60.8066 226.298 61.9521 225.407 62.8135ZM220.195 61.3018C220.605 61.7939 221.162 62.04 221.865 62.04C222.568 62.04 223.128 61.7939 223.544 61.3018C223.966 60.8096 224.177 60.168 224.177 59.377C224.177 58.5859 223.966 57.9443 223.544 57.4521C223.128 56.96 222.568 56.7139 221.865 56.7139C221.162 56.7139 220.605 56.96 220.195 57.4521C219.785 57.9443 219.58 58.5859 219.58 59.377C219.58 60.168 219.785 60.8096 220.195 61.3018ZM227.64 60.9238H230.057C230.104 61.3398 230.303 61.6709 230.654 61.917C231.006 62.1631 231.483 62.2861 232.087 62.2861C232.626 62.2861 233.045 62.2041 233.344 62.04C233.648 61.8701 233.801 61.624 233.801 61.3018C233.801 60.9736 233.654 60.7451 233.361 60.6162C233.15 60.5225 232.646 60.4229 231.85 60.3174H231.841L231.832 60.3086H231.823H231.814H231.806H231.797H231.788H231.779L231.771 60.2998H231.762H231.753H231.744H231.735H231.727H231.718L231.709 60.291H231.7H231.691H231.674C231.199 60.2324 230.786 60.168 230.435 60.0977C230.089 60.0273 229.743 59.9277 229.397 59.7988C229.052 59.6699 228.771 59.5146 228.554 59.333C228.343 59.1455 228.17 58.9111 228.035 58.6299C227.906 58.3428 227.842 58.0146 227.842 57.6455C227.842 56.7314 228.205 55.9961 228.932 55.4395C229.664 54.8828 230.625 54.6104 231.814 54.6221C233.074 54.6221 234.094 54.8887 234.873 55.4219C235.658 55.9492 236.08 56.6787 236.139 57.6104H233.704C233.669 57.2412 233.49 56.9512 233.168 56.7402C232.846 56.5293 232.427 56.4238 231.911 56.4238C231.407 56.4238 231.006 56.5088 230.707 56.6787C230.414 56.8428 230.268 57.0742 230.268 57.373C230.268 57.4844 230.285 57.584 230.32 57.6719C230.361 57.7539 230.426 57.8271 230.514 57.8916C230.607 57.9502 230.701 58 230.795 58.041C230.895 58.082 231.035 58.1201 231.217 58.1553C231.398 58.1846 231.562 58.2109 231.709 58.2344C231.855 58.252 232.058 58.2754 232.315 58.3047C232.351 58.3105 232.377 58.3135 232.395 58.3135C232.869 58.3604 233.279 58.4189 233.625 58.4893C233.971 58.5537 234.319 58.6533 234.671 58.7881C235.022 58.9229 235.31 59.0869 235.532 59.2803C235.755 59.4736 235.934 59.7256 236.068 60.0361C236.209 60.3408 236.279 60.6953 236.279 61.0996C236.279 62.0137 235.89 62.7432 235.11 63.2881C234.337 63.833 233.323 64.1055 232.069 64.1055C230.774 64.1055 229.726 63.8213 228.923 63.2529C228.12 62.6846 227.692 61.9082 227.64 60.9238ZM238.283 61.3545V56.8896H236.754V54.7451H238.283V52.1523H240.823V54.7451H242.95V56.8896H240.823V60.9414C240.823 61.2695 240.891 61.5039 241.025 61.6445C241.166 61.7852 241.403 61.8555 241.737 61.8555H243.003V64H240.929C239.165 64 238.283 63.1182 238.283 61.3545ZM249.305 61.3545V56.8896H247.775V54.7451H249.305V52.1523H251.845V54.7451H253.972V56.8896H251.845V60.9414C251.845 61.2695 251.912 61.5039 252.047 61.6445C252.188 61.7852 252.425 61.8555 252.759 61.8555H254.024V64H251.95C250.187 64 249.305 63.1182 249.305 61.3545ZM260.396 54.7451H260.827V57.0479H259.825C259.104 57.0479 258.574 57.2646 258.234 57.6982C257.9 58.126 257.733 58.7148 257.733 59.4648V64H255.193V54.7451H257.496L257.733 56.1338C258.009 55.6826 258.352 55.3398 258.762 55.1055C259.172 54.8652 259.717 54.7451 260.396 54.7451ZM268.14 59.377V54.7451H270.68V64H268.43L268.192 62.8838C267.519 63.6982 266.613 64.1055 265.477 64.1055C265.078 64.1055 264.706 64.0645 264.36 63.9824C264.015 63.9004 263.681 63.7598 263.358 63.5605C263.042 63.3555 262.77 63.0977 262.541 62.7871C262.318 62.4707 262.14 62.0664 262.005 61.5742C261.87 61.082 261.803 60.5166 261.803 59.8779V54.7451H264.343V59.5352C264.343 60.373 264.486 60.9941 264.773 61.3984C265.061 61.8027 265.515 62.0049 266.136 62.0049C266.769 62.0049 267.261 61.7793 267.612 61.3281C267.964 60.877 268.14 60.2266 268.14 59.377ZM272.007 60.9238H274.424C274.471 61.3398 274.67 61.6709 275.021 61.917C275.373 62.1631 275.851 62.2861 276.454 62.2861C276.993 62.2861 277.412 62.2041 277.711 62.04C278.016 61.8701 278.168 61.624 278.168 61.3018C278.168 60.9736 278.021 60.7451 277.729 60.6162C277.518 60.5225 277.014 60.4229 276.217 60.3174H276.208L276.199 60.3086H276.19H276.182H276.173H276.164H276.155H276.146L276.138 60.2998H276.129H276.12H276.111H276.103H276.094H276.085L276.076 60.291H276.067H276.059H276.041C275.566 60.2324 275.153 60.168 274.802 60.0977C274.456 60.0273 274.11 59.9277 273.765 59.7988C273.419 59.6699 273.138 59.5146 272.921 59.333C272.71 59.1455 272.537 58.9111 272.402 58.6299C272.273 58.3428 272.209 58.0146 272.209 57.6455C272.209 56.7314 272.572 55.9961 273.299 55.4395C274.031 54.8828 274.992 54.6104 276.182 54.6221C277.441 54.6221 278.461 54.8887 279.24 55.4219C280.025 55.9492 280.447 56.6787 280.506 57.6104H278.071C278.036 57.2412 277.857 56.9512 277.535 56.7402C277.213 56.5293 276.794 56.4238 276.278 56.4238C275.774 56.4238 275.373 56.5088 275.074 56.6787C274.781 56.8428 274.635 57.0742 274.635 57.373C274.635 57.4844 274.652 57.584 274.688 57.6719C274.729 57.7539 274.793 57.8271 274.881 57.8916C274.975 57.9502 275.068 58 275.162 58.041C275.262 58.082 275.402 58.1201 275.584 58.1553C275.766 58.1846 275.93 58.2109 276.076 58.2344C276.223 58.252 276.425 58.2754 276.683 58.3047C276.718 58.3105 276.744 58.3135 276.762 58.3135C277.236 58.3604 277.646 58.4189 277.992 58.4893C278.338 58.5537 278.687 58.6533 279.038 58.7881C279.39 58.9229 279.677 59.0869 279.899 59.2803C280.122 59.4736 280.301 59.7256 280.436 60.0361C280.576 60.3408 280.646 60.6953 280.646 61.0996C280.646 62.0137 280.257 62.7432 279.478 63.2881C278.704 63.833 277.69 64.1055 276.437 64.1055C275.142 64.1055 274.093 63.8213 273.29 63.2529C272.487 62.6846 272.06 61.9082 272.007 60.9238ZM282.65 61.3545V56.8896H281.121V54.7451H282.65V52.1523H285.19V54.7451H287.317V56.8896H285.19V60.9414C285.19 61.2695 285.258 61.5039 285.393 61.6445C285.533 61.7852 285.771 61.8555 286.104 61.8555H287.37V64H285.296C283.532 64 282.65 63.1182 282.65 61.3545ZM292.978 64.1055C291.448 64.1055 290.241 63.6807 289.356 62.8311C288.478 61.9814 288.038 60.8359 288.038 59.3945C288.038 57.9531 288.472 56.8018 289.339 55.9404C290.206 55.0732 291.357 54.6396 292.793 54.6396C294.182 54.6396 295.304 55.0439 296.159 55.8525C297.021 56.6553 297.46 57.7334 297.478 59.0869C297.478 59.3682 297.451 59.6553 297.398 59.9482H290.684V60.0801C290.707 60.7363 290.915 61.252 291.308 61.627C291.7 61.9961 292.219 62.1807 292.863 62.1807C293.385 62.1807 293.812 62.0693 294.146 61.8467C294.486 61.624 294.712 61.2988 294.823 60.8711H297.328C297.176 61.8086 296.71 62.582 295.931 63.1914C295.157 63.8008 294.173 64.1055 292.978 64.1055ZM290.745 58.2959H294.92C294.832 57.7334 294.604 57.2998 294.234 56.9951C293.865 56.6846 293.391 56.5293 292.811 56.5293C292.254 56.5293 291.788 56.6875 291.413 57.0039C291.038 57.3203 290.815 57.751 290.745 58.2959ZM305.572 55.8965V51.3965H308.112V64H305.897L305.643 62.7256C304.928 63.6455 303.981 64.1055 302.804 64.1055C301.538 64.1055 300.504 63.6777 299.701 62.8223C298.898 61.9609 298.497 60.8066 298.497 59.3594C298.497 57.9414 298.898 56.8018 299.701 55.9404C300.51 55.0732 301.538 54.6396 302.786 54.6396C303.981 54.6396 304.91 55.0586 305.572 55.8965ZM303.357 62.04C304.043 62.04 304.588 61.7969 304.992 61.3105C305.402 60.8242 305.607 60.1855 305.607 59.3945C305.607 58.5977 305.402 57.9531 304.992 57.4609C304.588 56.9629 304.043 56.7139 303.357 56.7139C302.666 56.7139 302.115 56.96 301.705 57.4521C301.295 57.9385 301.09 58.5801 301.09 59.377C301.09 60.1738 301.295 60.8184 301.705 61.3105C302.115 61.7969 302.666 62.04 303.357 62.04ZM170.941 80.3242L166.318 72.3965H169.465L172.295 77.5645L175.266 72.3965H178.271L173.648 80.3242V85H170.941V80.3242ZM181.479 74.3564C181.198 74.626 180.85 74.7607 180.434 74.7607C180.018 74.7607 179.666 74.626 179.379 74.3564C179.098 74.0811 178.957 73.7412 178.957 73.3369C178.957 72.9268 179.098 72.584 179.379 72.3086C179.666 72.0332 180.018 71.8955 180.434 71.8955C180.85 71.8955 181.198 72.0332 181.479 72.3086C181.767 72.584 181.91 72.9268 181.91 73.3369C181.91 73.7412 181.767 74.0811 181.479 74.3564ZM179.15 85V75.7451H181.708V85H179.15ZM188.036 85.1055C186.507 85.1055 185.3 84.6807 184.415 83.8311C183.536 82.9814 183.097 81.8359 183.097 80.3945C183.097 78.9531 183.53 77.8018 184.397 76.9404C185.265 76.0732 186.416 75.6396 187.852 75.6396C189.24 75.6396 190.362 76.0439 191.218 76.8525C192.079 77.6553 192.519 78.7334 192.536 80.0869C192.536 80.3682 192.51 80.6553 192.457 80.9482H185.742V81.0801C185.766 81.7363 185.974 82.252 186.366 82.627C186.759 82.9961 187.277 83.1807 187.922 83.1807C188.443 83.1807 188.871 83.0693 189.205 82.8467C189.545 82.624 189.771 82.2988 189.882 81.8711H192.387C192.234 82.8086 191.769 83.582 190.989 84.1914C190.216 84.8008 189.231 85.1055 188.036 85.1055ZM185.804 79.2959H189.979C189.891 78.7334 189.662 78.2998 189.293 77.9951C188.924 77.6846 188.449 77.5293 187.869 77.5293C187.312 77.5293 186.847 77.6875 186.472 78.0039C186.097 78.3203 185.874 78.751 185.804 79.2959ZM193.916 85V72.3965H196.456V85H193.916ZM204.938 76.8965V72.3965H207.478V85H205.263L205.008 83.7256C204.293 84.6455 203.347 85.1055 202.169 85.1055C200.903 85.1055 199.869 84.6777 199.066 83.8223C198.264 82.9609 197.862 81.8066 197.862 80.3594C197.862 78.9414 198.264 77.8018 199.066 76.9404C199.875 76.0732 200.903 75.6396 202.151 75.6396C203.347 75.6396 204.275 76.0586 204.938 76.8965ZM202.723 83.04C203.408 83.04 203.953 82.7969 204.357 82.3105C204.768 81.8242 204.973 81.1855 204.973 80.3945C204.973 79.5977 204.768 78.9531 204.357 78.4609C203.953 77.9629 203.408 77.7139 202.723 77.7139C202.031 77.7139 201.48 77.96 201.07 78.4521C200.66 78.9385 200.455 79.5801 200.455 80.377C200.455 81.1738 200.66 81.8184 201.07 82.3105C201.48 82.7969 202.031 83.04 202.723 83.04ZM215.695 85H212.9L217.506 72.3965H220.749L225.319 85H222.428L221.452 82.249H216.662L215.695 85ZM219.044 75.2793L217.383 80.0693H220.714L219.044 75.2793ZM232.641 77.0283L232.86 75.7451H235.093V84.7275C235.093 85.3135 234.999 85.8438 234.812 86.3184C234.624 86.793 234.337 87.209 233.95 87.5664C233.563 87.9297 233.048 88.2109 232.403 88.4102C231.759 88.6094 231.006 88.709 230.145 88.709C228.832 88.709 227.774 88.4189 226.972 87.8389C226.169 87.2646 225.738 86.4502 225.68 85.3955H228.237C228.489 86.3213 229.189 86.7842 230.338 86.7842C231.064 86.7842 231.624 86.6025 232.017 86.2393C232.409 85.8818 232.605 85.3486 232.605 84.6396V83.6641C231.926 84.5195 230.985 84.9473 229.784 84.9473C228.524 84.959 227.49 84.5371 226.682 83.6816C225.879 82.8262 225.478 81.6924 225.478 80.2803C225.478 78.8799 225.879 77.7549 226.682 76.9053C227.484 76.0498 228.513 75.6221 229.767 75.6221C230.968 75.6221 231.926 76.0908 232.641 77.0283ZM230.338 82.9082C231.023 82.9082 231.568 82.6709 231.973 82.1963C232.383 81.7217 232.588 81.0977 232.588 80.3242C232.588 79.5391 232.383 78.9004 231.973 78.4082C231.568 77.916 231.023 77.6699 230.338 77.6699C229.652 77.6699 229.102 77.9131 228.686 78.3994C228.275 78.8857 228.07 79.5186 228.07 80.2979C228.07 81.0771 228.275 81.707 228.686 82.1875C229.096 82.668 229.646 82.9082 230.338 82.9082ZM243.662 77.0283L243.882 75.7451H246.114V84.7275C246.114 85.3135 246.021 85.8438 245.833 86.3184C245.646 86.793 245.358 87.209 244.972 87.5664C244.585 87.9297 244.069 88.2109 243.425 88.4102C242.78 88.6094 242.027 88.709 241.166 88.709C239.854 88.709 238.796 88.4189 237.993 87.8389C237.19 87.2646 236.76 86.4502 236.701 85.3955H239.259C239.511 86.3213 240.211 86.7842 241.359 86.7842C242.086 86.7842 242.646 86.6025 243.038 86.2393C243.431 85.8818 243.627 85.3486 243.627 84.6396V83.6641C242.947 84.5195 242.007 84.9473 240.806 84.9473C239.546 84.959 238.512 84.5371 237.703 83.6816C236.9 82.8262 236.499 81.6924 236.499 80.2803C236.499 78.8799 236.9 77.7549 237.703 76.9053C238.506 76.0498 239.534 75.6221 240.788 75.6221C241.989 75.6221 242.947 76.0908 243.662 77.0283ZM241.359 82.9082C242.045 82.9082 242.59 82.6709 242.994 82.1963C243.404 81.7217 243.609 81.0977 243.609 80.3242C243.609 79.5391 243.404 78.9004 242.994 78.4082C242.59 77.916 242.045 77.6699 241.359 77.6699C240.674 77.6699 240.123 77.9131 239.707 78.3994C239.297 78.8857 239.092 79.5186 239.092 80.2979C239.092 81.0771 239.297 81.707 239.707 82.1875C240.117 82.668 240.668 82.9082 241.359 82.9082ZM253.084 75.7451H253.515V78.0479H252.513C251.792 78.0479 251.262 78.2646 250.922 78.6982C250.588 79.126 250.421 79.7148 250.421 80.4648V85H247.881V75.7451H250.184L250.421 77.1338C250.696 76.6826 251.039 76.3398 251.449 76.1055C251.859 75.8652 252.404 75.7451 253.084 75.7451ZM258.911 85.1055C257.382 85.1055 256.175 84.6807 255.29 83.8311C254.411 82.9814 253.972 81.8359 253.972 80.3945C253.972 78.9531 254.405 77.8018 255.272 76.9404C256.14 76.0732 257.291 75.6396 258.727 75.6396C260.115 75.6396 261.237 76.0439 262.093 76.8525C262.954 77.6553 263.394 78.7334 263.411 80.0869C263.411 80.3682 263.385 80.6553 263.332 80.9482H256.617V81.0801C256.641 81.7363 256.849 82.252 257.241 82.627C257.634 82.9961 258.152 83.1807 258.797 83.1807C259.318 83.1807 259.746 83.0693 260.08 82.8467C260.42 82.624 260.646 82.2988 260.757 81.8711H263.262C263.109 82.8086 262.644 83.582 261.864 84.1914C261.091 84.8008 260.106 85.1055 258.911 85.1055ZM256.679 79.2959H260.854C260.766 78.7334 260.537 78.2998 260.168 77.9951C259.799 77.6846 259.324 77.5293 258.744 77.5293C258.188 77.5293 257.722 77.6875 257.347 78.0039C256.972 78.3203 256.749 78.751 256.679 79.2959ZM271.594 77.0283L271.813 75.7451H274.046V84.7275C274.046 85.3135 273.952 85.8438 273.765 86.3184C273.577 86.793 273.29 87.209 272.903 87.5664C272.517 87.9297 272.001 88.2109 271.356 88.4102C270.712 88.6094 269.959 88.709 269.098 88.709C267.785 88.709 266.728 88.4189 265.925 87.8389C265.122 87.2646 264.691 86.4502 264.633 85.3955H267.19C267.442 86.3213 268.143 86.7842 269.291 86.7842C270.018 86.7842 270.577 86.6025 270.97 86.2393C271.362 85.8818 271.559 85.3486 271.559 84.6396V83.6641C270.879 84.5195 269.938 84.9473 268.737 84.9473C267.478 84.959 266.443 84.5371 265.635 83.6816C264.832 82.8262 264.431 81.6924 264.431 80.2803C264.431 78.8799 264.832 77.7549 265.635 76.9053C266.438 76.0498 267.466 75.6221 268.72 75.6221C269.921 75.6221 270.879 76.0908 271.594 77.0283ZM269.291 82.9082C269.977 82.9082 270.521 82.6709 270.926 82.1963C271.336 81.7217 271.541 81.0977 271.541 80.3242C271.541 79.5391 271.336 78.9004 270.926 78.4082C270.521 77.916 269.977 77.6699 269.291 77.6699C268.605 77.6699 268.055 77.9131 267.639 78.3994C267.229 78.8857 267.023 79.5186 267.023 80.2979C267.023 81.0771 267.229 81.707 267.639 82.1875C268.049 82.668 268.6 82.9082 269.291 82.9082ZM284.637 82.8555H284.927V85H283.626C283.005 85 282.562 84.8682 282.299 84.6045C282.035 84.335 281.909 83.9629 281.921 83.4883C281.241 84.5664 280.233 85.1055 278.897 85.1055C277.872 85.1055 277.04 84.8682 276.401 84.3936C275.769 83.9189 275.452 83.251 275.452 82.3896C275.452 81.4053 275.815 80.6465 276.542 80.1133C277.274 79.5801 278.329 79.3135 279.706 79.3135H281.543V78.8652C281.543 78.4434 281.396 78.1094 281.104 77.8633C280.811 77.6172 280.403 77.4941 279.882 77.4941C279.39 77.4941 278.985 77.5967 278.669 77.8018C278.353 78.0068 278.168 78.2822 278.115 78.6279H275.672C275.76 77.7256 276.19 77.002 276.964 76.457C277.737 75.9121 278.733 75.6396 279.952 75.6396C281.259 75.6396 282.267 75.9268 282.976 76.501C283.685 77.0752 284.039 77.9102 284.039 79.0059V82.2842C284.039 82.5127 284.086 82.665 284.18 82.7412C284.273 82.8174 284.426 82.8555 284.637 82.8555ZM281.543 81.1855V81.001H279.688C279.155 81.001 278.742 81.1064 278.449 81.3174C278.156 81.5283 278.01 81.8271 278.01 82.2139C278.01 82.5361 278.133 82.7939 278.379 82.9873C278.625 83.1748 278.959 83.2686 279.381 83.2686C280.043 83.2686 280.564 83.0811 280.945 82.7061C281.332 82.3252 281.531 81.8184 281.543 81.1855ZM286.57 82.3545V77.8896H285.041V75.7451H286.57V73.1523H289.11V75.7451H291.237V77.8896H289.11V81.9414C289.11 82.2695 289.178 82.5039 289.312 82.6445C289.453 82.7852 289.69 82.8555 290.024 82.8555H291.29V85H289.216C287.452 85 286.57 84.1182 286.57 82.3545ZM300.378 83.8135C299.493 84.6748 298.312 85.1055 296.836 85.1055C295.359 85.1055 294.176 84.6748 293.285 83.8135C292.4 82.9463 291.958 81.8008 291.958 80.377C291.958 78.9531 292.4 77.8076 293.285 76.9404C294.176 76.0732 295.359 75.6396 296.836 75.6396C298.312 75.6396 299.493 76.0732 300.378 76.9404C301.269 77.8076 301.714 78.9531 301.714 80.377C301.714 81.8066 301.269 82.9521 300.378 83.8135ZM295.166 82.3018C295.576 82.7939 296.133 83.04 296.836 83.04C297.539 83.04 298.099 82.7939 298.515 82.3018C298.937 81.8096 299.147 81.168 299.147 80.377C299.147 79.5859 298.937 78.9443 298.515 78.4521C298.099 77.96 297.539 77.7139 296.836 77.7139C296.133 77.7139 295.576 77.96 295.166 78.4521C294.756 78.9443 294.551 79.5859 294.551 80.377C294.551 81.168 294.756 81.8096 295.166 82.3018ZM308.314 75.7451H308.745V78.0479H307.743C307.022 78.0479 306.492 78.2646 306.152 78.6982C305.818 79.126 305.651 79.7148 305.651 80.4648V85H303.111V75.7451H305.414L305.651 77.1338C305.927 76.6826 306.27 76.3398 306.68 76.1055C307.09 75.8652 307.635 75.7451 308.314 75.7451Z" fill="white"/>
<defs>
<clipPath id="clip0_6_163">
<rect width="309" height="85" fill="white"/>
</clipPath>
</defs>
</svg>
