<?xml version="1.0" encoding="UTF-8"?><svg id="a" xmlns="http://www.w3.org/2000/svg" viewBox="0 0 43.51 28"><defs><style>.b{fill:#fff;}</style></defs><path class="b" d="M29.83,23.37h-3.39c-.48,0-.86.39-.86.86v2.26c0,.48.39.86.86.86h3.39c.48,0,.86-.39.86-.86v-2.26c0-.48-.39-.86-.86-.86Z"/><path class="b" d="M43.08,10.89c.24,0,.43-.18.43-.42v-1.15c0-.61-.39-1-.86-1h-8.48c-.49,0-.89-.4-.89-.89v-.82c0-.47-.39-.85-.87-.85h-.83c-.48,0-.86-.39-.86-.86V1.5c0-.47-.38-.86-.86-.86h-.84c-.48,0-.86.39-.86.86v.83c0,.48-.39.86-.86.86h-3.39c-.48,0-.86-.39-.86-.86v-.83c0-.48-.39-.86-.86-.86h-.84c-.48,0-.86.39-.86.86v1.8c0,.48-.39.86-.86.86H6.32c-.48,0-.86.39-.86.86v2.43c0,.48-.39.86-.86.86h-1.17c-.48,0-.86.39-.86.86v.84c0,.48-.39.86-.86.86h-.84c-.48,0-.86.39-.86.86v1.49c0,.48.39.86.86.86h.84c.48,0,.86.39.86.86v11.55c0,.48.39.86.86.86h3.39c.48,0,.86-.39.86-.86v-4.56c0-.5.41-.9.91-.9h.74c.5,0,.91.41.91.9v2.65c0,.48.39.86.86.86h3.39c.48,0,.86-.39.86-.86v-2.65c0-.5.41-.91.91-.91h.69c.47,0,.86.39.86.86v4.56c0,.48.39.86.86.86h3.39c.48,0,.86-.39.86-.86v-4.88c0-.37-.3-.67-.67-.67h-.9c-.48,0-.86-.39-.86-.86v-10.86c0-.47.38-.86.85-.86h.84c.48,0,.86.39.86.86v8.51c0,.48.39.86.86.86h.81c.48,0,.86.39.86.86v.84c0,.48.39.86.86.86h16.22c.47,0,.86-.38.86-.85v-6.39c0-.24-.2-.42-.44-.42-.47,0-.85-.39-.85-.86v-.84c0-.47.38-.85.85-.86ZM36.86,11.75c0-.47.39-.86.86-.86h.84c.47,0,.86.39.86.86v.84c0,.47-.39.86-.86.86h-.84c-.47,0-.86-.39-.86-.86v-.84ZM28.16,9.18c0-.47.39-.86.86-.86h.84c.47,0,.86.39.86.86v.84c0,.47-.39.86-.86.86h-.84c-.47,0-.86-.39-.86-.86v-.84Z"/></svg>